<svg width="112" height="56" viewBox="0 0 112 56" fill="none" xmlns="http://www.w3.org/2000/svg">
<g clip-path="url(#clip0_318_7765)">
<path d="M46.7546 11.7844C46.7546 11.7205 46.6907 11.6567 46.6269 11.5928C46.8185 11.4012 46.8185 11.1457 46.6269 11.0179C46.563 10.8902 46.4353 10.8263 46.3075 10.8902C46.3714 10.7625 46.3714 10.5708 46.2436 10.4431C46.1798 10.3792 46.052 10.3154 45.9243 10.2515C45.9882 10.1237 45.9882 9.93212 45.8604 9.80437C45.7965 9.67663 45.6688 9.67663 45.5411 9.67663C45.6688 9.48501 45.6688 9.35727 45.4772 9.22952C45.4133 9.16565 45.2856 9.10178 45.1578 9.03791C45.0301 9.03791 44.9023 9.03791 44.8385 9.16565C44.8385 9.16565 44.8385 9.16565 44.7746 9.16565C45.0301 8.91016 45.1578 8.65467 44.9662 8.39919C44.9023 8.33531 44.7746 8.27144 44.7107 8.27144C44.7746 8.1437 44.7746 8.01595 44.6468 7.88821C44.583 7.82434 44.4552 7.76046 44.3275 7.69659C44.072 7.69659 44.0081 7.63272 39.3455 11.5289C39.4732 11.4012 39.5371 11.3373 39.6648 11.2096C40.7506 10.1237 41.7726 9.10178 42.4752 8.27144C42.8584 7.88821 43.1778 7.56885 43.3694 7.31336C43.7526 6.93013 43.9442 6.67464 43.6888 6.35528C43.6249 6.29141 43.6249 6.29141 43.561 6.22753C43.561 6.16366 43.4971 6.03592 43.4333 5.97204C43.4333 5.90817 43.4333 5.8443 43.3694 5.8443C43.3694 5.78043 43.3055 5.65268 43.2417 5.58881C43.1778 5.52494 43.1778 5.52494 43.1139 5.46107C43.1139 5.3972 43.05 5.26945 42.9862 5.20558C42.8584 5.01396 42.5391 5.01396 42.3474 5.14171L36.4712 9.93212C37.9403 8.52693 39.1538 7.31336 40.048 6.41915C40.6868 5.78043 41.1977 5.26945 41.5171 4.88622C42.1558 4.37524 42.4113 4.11975 42.1558 3.73652C42.092 3.67265 41.9642 3.60878 41.8365 3.5449C41.7087 3.5449 41.581 3.5449 41.5171 3.67265C41.1977 3.92814 40.8784 4.18362 40.4952 4.50299C40.6229 4.37524 40.7506 4.2475 40.8784 4.11975C41.6449 3.41716 41.9003 3.16167 41.581 2.84231C41.5171 2.77844 41.4532 2.71457 41.3894 2.71457C41.3894 2.58682 41.3894 2.45908 41.2616 2.39521C41.1977 2.33133 41.07 2.26746 41.0061 2.26746C41.07 2.13972 41.0061 2.01197 40.9423 1.88423C40.9423 1.82036 40.8784 1.82036 40.8784 1.75648C40.6868 1.501 40.4952 1.56487 40.2397 1.69261L40.1758 1.75648C40.1119 1.82036 39.9842 1.88423 39.9203 1.9481L39.8564 2.01197L40.2397 1.24551C40.3035 1.11776 40.3035 0.990018 40.2397 0.862274C40.2397 0.606785 40.1119 0.542913 39.9842 0.542913C40.048 0.351297 39.9842 0.15968 39.7926 0.0958082C39.6009 -0.0319361 39.4093 -0.0319361 39.2816 0.0958082C39.2816 0.0958082 39.09 0.223552 39.09 0.287425L39.1538 0.351297L38.6429 1.501C38.579 1.62874 38.579 1.75648 38.6429 1.88423C38.7067 1.9481 38.7706 2.01197 38.8345 2.07584L38.1319 3.48103C38.068 3.5449 38.068 3.67265 38.068 3.73652C37.9403 3.86426 37.9403 4.11975 38.068 4.2475C38.1319 4.31137 38.1958 4.37524 38.2596 4.37524C36.0241 6.22753 33.5331 8.27144 31.2976 10.0599C31.6169 9.7405 32.0002 9.42114 32.3195 9.10178C33.8525 7.63272 35.066 6.41915 35.9602 5.58881C36.4073 5.07783 36.7906 4.6946 37.0461 4.43911C37.4932 3.99201 37.7487 3.73652 37.4293 3.41716C37.3654 3.35329 37.2377 3.28941 37.1099 3.22554C37.0461 3.22554 37.0461 3.22554 36.9822 3.22554C36.9822 3.16167 36.9183 3.0978 36.8544 2.97005C36.7906 2.90618 36.6628 2.84231 36.5351 2.77844H36.4712C36.4712 2.71457 36.4073 2.71457 36.4073 2.65069C36.3435 2.58682 36.2157 2.52295 36.088 2.45908C36.0241 2.45908 36.0241 2.45908 35.9602 2.45908C35.9602 2.39521 35.8964 2.33133 35.8964 2.26746C35.7686 2.13972 35.6409 2.07584 35.4493 2.13972C35.4493 2.07584 35.3854 2.01197 35.3215 1.9481C35.2576 1.88423 35.1299 1.82036 35.0022 1.75648C34.8744 1.75648 34.8744 1.75648 34.6189 1.88423C34.4912 2.26746 34.1079 2.52295 33.4053 3.0978C32.575 3.80039 31.4253 4.75847 30.1479 5.78043C29.8924 5.97204 29.6369 6.22753 29.3814 6.41915C30.3395 5.52494 31.2337 4.63073 32.0002 3.92814C32.7028 3.28941 33.2137 2.77844 33.5331 2.39521C34.1718 1.75648 34.3634 1.501 34.1079 1.18163C34.0441 1.11776 33.9163 1.05389 33.7886 0.990018C33.6608 0.990018 33.5331 0.990018 33.4692 1.11776C32.6389 1.82036 31.6808 2.58682 30.7227 3.35329C31.6169 2.52295 32.3834 1.82036 33.086 1.18163C33.2776 0.990018 33.2776 0.73453 33.1499 0.542913C33.086 0.479041 33.0221 0.415169 32.8944 0.415169C32.8305 0.351297 32.7028 0.287425 32.575 0.223552C32.4473 0.223552 32.3195 0.223552 32.2557 0.351297C27.8485 3.99201 21.1419 9.54888 20.4393 9.99599C20.3754 9.99599 20.3116 10.0599 20.3116 10.0599C20.1199 10.1876 20.1199 10.507 20.2477 10.6986C20.2477 10.7625 20.3116 10.8263 20.3754 10.9541C20.4393 11.0179 20.5671 11.0818 20.6948 11.1457C20.8225 11.1457 20.9503 11.1457 21.0142 11.0179L23.0581 9.35727C22.9303 9.48501 22.8664 9.54888 22.7387 9.67663C22.1639 10.1876 21.7167 10.6347 21.3974 10.8902L21.0142 11.2096C20.8864 11.3373 20.5671 11.5928 20.8225 11.9122C20.8864 11.976 21.0142 12.0399 21.1419 12.1038C21.2058 12.1038 21.2696 12.1038 21.5251 11.976C21.5251 11.976 21.5251 11.976 21.589 11.9122C22.0361 11.5928 23.1858 10.6347 26.3794 8.07982C25.1658 9.22952 24.08 10.3154 23.1858 11.1457C22.6748 11.5928 22.2916 11.976 22.0361 12.2954C21.5251 12.8064 21.3335 12.998 21.589 13.3173C21.6529 13.3812 21.7167 13.4451 21.7806 13.4451C21.7167 13.5728 21.7167 13.7006 21.8445 13.8283C21.9084 13.8922 21.9722 13.9561 22.0361 13.9561C21.9722 14.0838 22.0361 14.2116 22.1 14.3393C22.1639 14.4032 22.1639 14.4032 22.2277 14.467C22.2277 14.5948 22.2277 14.6587 22.3555 14.7864C22.4193 14.8503 22.4832 14.9141 22.611 14.9141C22.5471 15.0419 22.5471 15.2335 22.6748 15.3612C22.8026 15.5529 23.1219 15.5529 23.3136 15.4251C25.6768 13.4451 28.6788 10.9541 31.2337 8.84629C29.5091 10.507 27.2098 12.6786 24.3355 15.4251L23.6968 16C23.4413 16.2555 23.1858 16.5109 23.4413 16.8303C23.5052 16.8942 23.569 16.9581 23.6329 16.9581C23.6329 17.0858 23.6329 17.2135 23.6968 17.3413C23.8245 17.5329 24.1439 17.5329 24.3355 17.4052C25.5491 16.4471 26.8265 15.3612 28.1678 14.2754C26.8265 15.489 25.4852 16.6387 24.2716 17.6606C24.1439 17.7884 24.08 17.98 24.1439 18.1078C24.2078 18.2994 24.3355 18.3632 24.5271 18.4271C24.591 18.4271 24.6549 18.4271 24.8465 18.2994C24.8465 18.2994 24.9104 18.2355 24.9742 18.1716C25.3575 17.9161 26.0601 17.3413 27.5291 16.1277C29.1259 14.7864 31.2976 13.0619 33.4692 11.2734C34.1718 10.6986 34.8744 10.1237 35.577 9.54888C33.2137 11.8483 30.4672 14.467 28.2317 16.5748C28.0401 16.7664 28.0401 17.0219 28.2317 17.2135C28.3595 17.4052 28.6788 17.4052 28.8704 17.2774L29.3175 16.8942C29.3814 16.9581 29.5091 17.0219 29.573 17.0219C29.7008 17.0219 29.8285 17.0219 29.8924 16.9581L30.3395 16.5748C30.4034 16.6387 30.5311 16.7026 30.595 16.7026C30.7227 16.7026 30.8505 16.7026 30.9143 16.5748L31.4253 16.1916C31.5531 16.3832 31.8724 16.3832 32.064 16.2555C33.9802 14.6587 36.4073 12.6786 38.5151 11.0179C37.4293 12.1038 36.4073 13.1896 35.5131 14.0838C35.0022 14.5948 34.6189 15.0419 34.2996 15.3612C33.7886 15.9361 33.597 16.1277 33.8525 16.4471C33.9163 16.5109 34.0441 16.5748 34.1718 16.6387C34.2357 16.6387 34.2357 16.6387 34.2996 16.6387C34.2996 16.7664 34.3634 16.8303 34.4273 16.9581C34.555 17.1497 34.8744 17.1497 35.066 17.0219L35.577 16.6387C35.4493 16.7664 35.3215 16.8942 35.1938 17.0219C35.0022 17.1497 35.0022 17.469 35.1299 17.5968C35.1938 17.6606 35.3215 17.7245 35.4493 17.7884C35.5131 17.7884 35.5131 17.7884 35.6409 17.7884C35.6409 17.9161 35.6409 18.0439 35.7686 18.1716C35.8964 18.2994 36.0241 18.3632 36.2157 18.2994C36.2157 18.4271 36.2157 18.5549 36.3435 18.6187C36.4712 18.7465 36.599 18.8103 36.7906 18.7465C36.7267 18.8742 36.7906 18.9381 36.9183 19.1297C36.9822 19.1936 37.1099 19.2574 37.2377 19.3213C37.2377 19.3852 37.3015 19.4491 37.3015 19.5129C37.3654 19.5768 37.4932 19.6407 37.6209 19.7046C37.6848 19.7046 37.7487 19.7046 37.9403 19.5768L38.0041 19.5129C38.3235 19.2574 39.09 18.6826 40.8145 17.2774L38.3235 19.8323C38.1958 19.96 38.1958 20.1517 38.1958 20.2794C38.2596 20.4071 38.3874 20.5349 38.579 20.5349C38.6429 20.5349 38.7067 20.5349 38.8984 20.4071L38.9622 20.3433C39.0261 20.2794 39.1538 20.2155 39.3455 20.0878L38.7067 20.4071C38.5151 20.5988 38.5151 20.8543 38.7067 20.982C38.7706 21.0459 38.8345 21.1097 38.9622 21.1097C39.0261 21.1736 39.1538 21.2375 39.2177 21.2375C39.2177 21.2375 39.2177 21.2375 39.2816 21.2375C39.4093 21.2375 39.4732 21.1736 39.5371 21.1097C40.2397 20.5349 41.07 19.8323 41.8365 19.1936C41.5171 19.6407 41.2616 20.1517 41.0061 20.5349C40.8784 20.7265 40.9423 20.982 41.07 21.1097C41.2616 21.2375 41.4532 21.2375 41.6449 21.1097C41.9003 20.9181 42.1558 20.6626 42.2197 20.6626L42.1558 20.5349L43.6249 18.1716C43.9443 17.5968 44.072 17.469 44.0081 17.2774C44.0081 17.2774 44.072 17.2135 44.072 17.2135C44.2636 17.0858 44.2636 16.7664 44.1359 16.5748C44.072 16.5109 43.9442 16.4471 43.8804 16.4471L45.1578 15.1696C45.2856 15.0419 45.3494 14.7864 45.1578 14.5948C45.0939 14.5309 44.9662 14.467 44.8385 14.4032C44.7107 14.4032 44.6468 14.4032 44.1359 14.7864L46.6269 12.2315C46.7546 12.1676 46.8185 11.976 46.7546 11.7844Z" fill="white"/>
<path d="M41.1977 22.2595C41.0699 22.3233 40.9422 22.4511 40.8145 22.5788C40.8145 22.4511 40.6867 22.2595 40.559 22.1956C40.4312 22.1317 40.2396 22.1317 40.1119 22.1956C40.048 22.1317 39.9841 22.1317 39.9202 22.1317C39.7925 22.1317 39.6648 22.1317 39.6009 22.2595C39.6009 22.2595 39.4731 22.3872 39.4093 22.3872L39.537 22.5788H39.4731C39.4731 22.5788 39.4731 22.7066 39.4731 22.7704C39.4731 23.0259 39.4731 23.0898 39.537 23.2814C39.6009 23.4092 39.7286 23.4092 39.8564 23.4092C39.8564 23.6646 39.8564 23.7285 39.9202 23.7924C39.9841 23.8563 40.1119 23.9201 40.2396 23.984H40.3035C40.4312 23.984 40.559 23.8563 41.7087 22.9621C41.9003 22.8343 41.9003 22.5149 41.7725 22.3233C41.6448 22.1317 41.3893 22.0678 41.1977 22.2595Z" fill="white"/>
<path d="M9.06982 23.6011V21.8127H10.6666V21.0462C10.6666 20.7268 10.6666 20.4714 10.6666 20.4075C10.6666 18.6191 11.6886 17.7249 13.6686 17.7249C14.0519 17.7249 14.3712 17.7887 14.6906 17.8526V19.641C14.499 19.641 14.3712 19.5771 14.1796 19.5771C12.966 19.5771 12.8383 20.0243 12.8383 21.1101V21.8127H19.5449V23.6011H12.8383V32.0322H10.6666V23.6011H9.06982Z" fill="white"/>
<path d="M6.70658 31.0739C5.94012 31.7765 5.10978 32.1598 3.96008 32.1598C1.8523 32.1598 0.38324 30.8184 0.38324 29.03C0.38324 26.8584 1.78843 26.1558 4.66267 25.7087C6.00399 25.517 6.77045 25.3893 6.77045 24.4951C6.77045 23.8564 6.1956 23.4093 4.98203 23.4093C3.70459 23.4093 3.06587 23.9202 3.002 24.8783H0.830345C1.08583 22.5789 2.42715 21.6208 5.04591 21.6208C7.85628 21.6208 8.81436 22.5789 8.81436 24.6867V29.7965C8.81436 30.7546 8.81436 31.521 9.13372 32.1598H7.15369C6.83432 31.7765 6.70658 31.521 6.70658 31.0739ZM2.74651 28.8384C2.74651 29.6687 3.32136 30.1797 4.34331 30.1797C6.06786 30.1797 6.70658 29.2855 6.70658 27.561C6.70658 27.3055 6.70658 27.05 6.70658 26.7306C4.47106 27.4971 2.74651 27.2416 2.74651 28.8384Z" fill="white"/>
<path d="M17.6922 23.6009V28.6468C17.6922 29.7326 17.8199 30.1797 19.0335 30.1797C19.2251 30.1797 19.4167 30.1797 19.6083 30.1158V31.9681C19.2251 32.0958 18.8419 32.0958 18.4586 32.0958C15.776 32.0958 15.5205 30.9461 15.5205 28.7106V23.6009V21.8124V18.2356H17.6922V21.8124V23.6009V23.6009Z" fill="white"/>
<path d="M25.9957 31.0739C25.2292 31.7765 24.3989 32.1598 23.2492 32.1598C21.1414 32.1598 19.6724 30.8184 19.6724 29.03C19.6724 26.8584 21.0776 26.1558 23.9518 25.7087C25.2931 25.517 26.0596 25.3893 26.0596 24.4951C26.0596 23.8564 25.4847 23.4093 24.2712 23.4093C22.9937 23.4093 22.355 23.9202 22.2911 24.8783H20.1833C20.4388 22.5789 21.7801 21.6208 24.3989 21.6208C27.2093 21.6208 28.1674 22.5789 28.1674 24.6867V29.7965C28.1674 30.7546 28.1674 31.521 28.4867 32.1598H26.5067C26.1873 31.7765 25.9957 31.521 25.9957 31.0739ZM22.0995 28.8384C22.0995 29.6687 22.6744 30.1797 23.6963 30.1797C25.4209 30.1797 26.0596 29.2855 26.0596 27.561C26.0596 27.3055 26.0596 27.05 26.0596 26.7306C23.8241 27.4971 22.0995 27.2416 22.0995 28.8384Z" fill="white"/>
<path d="M1.72455 40.5909L1.5968 40.1438H0.574849L0.447105 40.5909H0L0.830338 37.9722H1.34131L2.17165 40.5909H1.72455ZM1.1497 38.547C1.1497 38.4831 1.08583 38.4193 1.08583 38.2915C1.08583 38.3554 1.08583 38.4831 1.02195 38.547L0.638721 39.7606H1.46906L1.1497 38.547Z" fill="white"/>
<path d="M2.55518 37.9082H3.00228V39.5689C3.00228 39.9521 3.1939 40.2076 3.57713 40.2076C3.96036 40.2076 4.15198 40.016 4.15198 39.5689V37.9082H4.59908V39.6327C4.59908 40.2715 4.27972 40.6547 3.57713 40.6547C2.93841 40.6547 2.55518 40.3353 2.55518 39.6327V37.9082V37.9082Z" fill="white"/>
<path d="M5.3012 39.8245C5.49282 40.08 5.74831 40.2078 6.00379 40.2078C6.32316 40.2078 6.57864 40.0161 6.57864 39.8245C6.57864 39.5052 6.25928 39.5052 5.81218 39.3774C5.3012 39.2497 5.04571 39.0581 5.04571 38.6748C5.04571 38.2277 5.42895 37.8445 6.00379 37.8445C6.4509 37.8445 6.77026 37.9722 7.02575 38.2916L6.70639 38.5471C6.57864 38.3555 6.32316 38.2277 6.06767 38.2277C5.74831 38.2277 5.55669 38.3555 5.55669 38.5471C5.49282 38.9303 5.74831 38.9303 6.19541 38.9942C6.77026 39.1219 7.02575 39.3135 7.02575 39.7606C7.02575 40.2716 6.64252 40.591 6.00379 40.591C5.49282 40.591 5.10959 40.3994 4.91797 40.08L5.3012 39.8245Z" fill="white"/>
<path d="M7.40918 37.9082H9.32534V38.3553H8.62275V40.5908H8.17565V38.3553H7.47305V37.9082H7.40918Z" fill="white"/>
<path d="M9.83594 37.9082H10.794C11.4327 37.9082 11.7521 38.1637 11.7521 38.6747C11.7521 39.0579 11.5605 39.3134 11.2411 39.4411L11.8798 40.527H11.3689L10.7301 39.5689H10.283V40.5908H9.83594V37.9082V37.9082ZM10.794 39.1856C11.1134 39.1856 11.305 39.0579 11.305 38.7385C11.305 38.4831 11.1773 38.3553 10.794 38.3553H10.283V39.1856H10.794V39.1856Z" fill="white"/>
<path d="M13.6684 40.5909L13.5407 40.1438H12.5187L12.391 40.5909H11.9438L12.7742 37.9722H13.2852L14.1155 40.5909H13.6684ZM13.0935 38.547C13.0935 38.4831 13.0297 38.4193 13.0297 38.2915C13.0297 38.3554 13.0297 38.4831 12.9658 38.547L12.5826 39.7606H13.4129L13.0935 38.547Z" fill="white"/>
<path d="M14.5625 37.9082H15.0096V40.1437H16.0954V40.5908H14.5625V37.9082Z" fill="white"/>
<path d="M16.543 37.9082H16.9901V40.527H16.543V37.9082Z" fill="white"/>
<path d="M19.1615 40.5909L19.0338 40.1438H18.0118L17.8841 40.5909H17.437L18.2673 37.9722H18.7783L19.6086 40.5909H19.1615ZM18.5228 38.547C18.5228 38.4831 18.4589 38.4193 18.4589 38.2915C18.4589 38.3554 18.4589 38.4831 18.395 38.547L18.0118 39.7606H18.8421L18.5228 38.547Z" fill="white"/>
<path d="M19.9922 37.9082H20.4393L21.4612 39.6327C21.5251 39.6966 21.589 39.8244 21.589 39.9521C21.5251 39.7605 21.5251 39.6327 21.5251 39.6327V37.9082H21.9722V40.527H21.5251L20.5032 38.8024C20.4393 38.7385 20.3754 38.6108 20.3754 38.483C20.4393 38.6747 20.4393 38.8024 20.4393 38.8024V40.527H19.9922V37.9082Z" fill="white"/>
<path d="M23.8242 37.9082H25.4849V38.3553H24.2713V38.994H25.421V39.3773H24.2713V40.5908H23.8242V37.9082Z" fill="white"/>
<path d="M26.0601 37.9082H27.8485V38.2914H26.5072V38.9302H27.7207V39.3134H26.5072V40.0799H27.8485V40.4631H26.0601V37.9082Z" fill="white"/>
<path d="M28.4229 37.9082H29.3171C30.0835 37.9082 30.5306 38.4192 30.5306 39.2495C30.5306 40.0799 30.0835 40.5908 29.3171 40.5908H28.4867V37.9082H28.4229ZM29.2532 40.1437C29.7642 40.1437 30.0197 39.8244 30.0197 39.2495C30.0197 38.6108 29.7642 38.3553 29.2532 38.3553H28.87V40.1437H29.2532Z" fill="white"/>
<path d="M30.978 37.9082H32.7664V38.2914H31.4251V38.9302H32.6387V39.3134H31.4251V40.0799H32.7664V40.4631H30.978V37.9082Z" fill="white"/>
<path d="M33.3413 37.9082H34.2994C34.9381 37.9082 35.2575 38.1637 35.2575 38.6747C35.2575 39.0579 35.0659 39.3134 34.7465 39.4411L35.3852 40.527H34.8742L34.2355 39.5689H33.7884V40.5908H33.3413V37.9082V37.9082ZM34.2355 39.1856C34.5549 39.1856 34.7465 39.0579 34.7465 38.7385C34.7465 38.4831 34.6187 38.3553 34.2355 38.3553H33.7245V39.1856H34.2355V39.1856Z" fill="white"/>
<path d="M37.1738 40.5909L37.0461 40.1438H36.0241L35.8964 40.5909H35.4493L36.2796 37.9722H36.7906L37.6209 40.5909H37.1738ZM36.5351 38.547C36.5351 38.4831 36.4712 38.4193 36.4712 38.2915C36.4712 38.3554 36.4712 38.4831 36.4074 38.547L36.0241 39.7606H36.8545L36.5351 38.547Z" fill="white"/>
<path d="M37.6206 37.9082H39.5368V38.3553H38.8342V40.5908H38.3232V38.3553H37.6206V37.9082Z" fill="white"/>
<path d="M39.9844 37.9082H40.4315V40.527H39.9844V37.9082Z" fill="white"/>
<path d="M42.156 40.6549C41.4534 40.6549 40.9424 40.1439 40.9424 39.2497C40.9424 38.4193 41.4534 37.8445 42.156 37.8445C42.8586 37.8445 43.3695 38.3555 43.3695 39.2497C43.3057 40.08 42.8586 40.6549 42.156 40.6549ZM42.8585 39.2497C42.8585 38.6109 42.6031 38.2916 42.156 38.2916C41.7089 38.2916 41.4534 38.6748 41.4534 39.2497C41.4534 39.8884 41.7089 40.2078 42.156 40.2078C42.5392 40.2078 42.8585 39.8884 42.8585 39.2497Z" fill="white"/>
<path d="M43.8159 37.9082H44.263L45.285 39.6327C45.3489 39.6966 45.4127 39.8244 45.4127 39.9521C45.3488 39.8244 45.3488 39.6966 45.3488 39.6327V37.9082H45.796V40.527H45.3488L44.3269 38.8024C44.263 38.7385 44.1991 38.6108 44.1991 38.483C44.263 38.6747 44.263 38.8024 44.263 38.8024V40.527H43.8159V37.9082Z" fill="white"/>
<path d="M7.34541 44.4873C6.64281 44.4873 6.13184 43.9763 6.13184 43.0821C6.13184 42.2517 6.64281 41.6769 7.34541 41.6769C8.048 41.6769 8.55898 42.1879 8.55898 43.0821C8.55898 43.9763 8.048 44.4873 7.34541 44.4873ZM8.048 43.1459C8.048 42.5072 7.79251 42.1879 7.34541 42.1879C6.8983 42.1879 6.64281 42.5711 6.64281 43.1459C6.64281 43.7847 6.8983 44.104 7.34541 44.104C7.79251 44.104 8.048 43.7208 8.048 43.1459Z" fill="white"/>
<path d="M9.06982 41.8046H10.7305V42.1878H9.51693V42.8265H10.6666V43.2098H9.51693V44.3595H9.06982V41.8046Z" fill="white"/>
<path d="M12.3271 41.8046H14.2433V42.2517H13.5407V44.4872H13.0936V42.2517H12.391V41.8046H12.3271Z" fill="white"/>
<path d="M14.7544 41.8046H15.7125C16.3512 41.8046 16.6706 42.0601 16.6706 42.571C16.6706 42.9543 16.4789 43.2098 16.1596 43.3375L16.7983 44.4233H16.2873L15.6486 43.4014H15.2015V44.4233H14.7544V41.8046ZM15.6486 43.0181C15.968 43.0181 16.1596 42.8904 16.1596 42.571C16.1596 42.3155 16.0318 42.1878 15.6486 42.1878H15.1376V43.0181H15.6486Z" fill="white"/>
<path d="M18.5868 44.4233L18.459 44.0401H17.4371L17.2454 44.4233H16.7983L17.6287 41.8046H18.1397L18.97 44.4233H18.5868ZM17.948 42.3794C17.948 42.3155 17.8842 42.2517 17.8842 42.1239C17.8842 42.1878 17.8842 42.3155 17.8203 42.3794L17.4371 43.593H18.2674L17.948 42.3794Z" fill="white"/>
<path d="M19.1616 41.8046H19.6087L20.1196 43.7207C20.1196 43.7846 20.1835 43.9123 20.1835 43.9762C20.1835 43.8485 20.2474 43.7846 20.2474 43.7207L20.7584 41.8046H21.2055L20.439 44.4233H19.8642L19.1616 41.8046Z" fill="white"/>
<path d="M21.7168 41.8046H23.5052V42.1878H22.1639V42.8265H23.3775V43.2098H22.1639V44.0401H23.5052V44.4233H21.7168V41.8046Z" fill="white"/>
<path d="M24.0797 41.8046H24.5268V44.0401H25.6126V44.4233H24.0797V41.8046V41.8046Z" fill="white"/>
<path d="M28.7425 44.4233L28.6148 44.0401H27.5928L27.4651 44.4233H27.018L27.8483 41.8046H28.3593L29.1896 44.4233H28.7425ZM28.1038 42.3794C28.1038 42.3155 28.0399 42.2517 28.0399 42.1239C28.0399 42.1878 28.0399 42.3155 27.9761 42.3794L27.5928 43.593H28.4232L28.1038 42.3794Z" fill="white"/>
<path d="M31.6807 44.4234H31.2336V44.2318C31.042 44.4234 30.8503 44.4873 30.531 44.4873C29.8284 44.4873 29.3174 43.9763 29.3174 43.0821C29.3174 42.2517 29.8284 41.6769 30.531 41.6769C31.042 41.6769 31.4252 41.9324 31.6168 42.4433L31.2336 42.635C31.1058 42.3156 30.8503 42.124 30.5949 42.124C30.1477 42.124 29.8284 42.5072 29.8284 43.0821C29.8284 43.7208 30.1477 44.0401 30.5949 44.0401C30.9781 44.0401 31.2336 43.7847 31.2336 43.4014H30.5949V42.9543H31.6168V44.4234H31.6807Z" fill="white"/>
<path d="M32.2553 41.8046H34.0437V42.1878H32.7663V42.8265H33.9798V43.2098H32.7663V44.0401H34.1076V44.4233H32.3192V41.8046H32.2553Z" fill="white"/>
<path d="M34.5547 41.8046H35.0018L36.0238 43.5291C36.0877 43.593 36.1515 43.7207 36.1515 43.8485C36.0876 43.6569 36.0877 43.5291 36.0877 43.5291V41.8046H36.5348V44.4233H36.0877L35.1296 42.6988C35.0657 42.6349 35.0018 42.5072 35.0018 42.3794C35.0657 42.571 35.0657 42.6988 35.0657 42.6988V44.4233H34.6186V41.8046H34.5547Z" fill="white"/>
<path d="M37.1098 41.8046H39.026V42.2517H38.3234V44.4872H37.8763V42.2517H37.1737V41.8046H37.1098Z" fill="white"/>
<path d="M39.6646 43.7205C39.8562 43.976 40.1117 44.1037 40.3672 44.1037C40.6865 44.1037 40.942 43.9121 40.942 43.7205C40.942 43.4012 40.6227 43.4012 40.1756 43.2734C39.6646 43.1457 39.4091 42.954 39.4091 42.5708C39.4091 42.1237 39.7923 41.7405 40.3672 41.7405C40.8143 41.7405 41.1336 41.8682 41.3891 42.1876L41.0698 42.4431C40.942 42.2515 40.6865 42.1237 40.431 42.1237C40.1117 42.1237 39.9201 42.2515 39.9201 42.4431C39.9201 42.7624 40.1756 42.7624 40.6227 42.8263C41.1975 42.954 41.453 43.1457 41.453 43.5928C41.453 44.1037 41.0698 44.4231 40.431 44.4231C39.9201 44.4231 39.5368 44.2315 39.3452 43.9121L39.6646 43.7205Z" fill="white"/>
<path d="M46.4991 34.4594H0.447266V35.9923H46.4991V34.4594Z" fill="white"/>
<path d="M46.4991 46.4034H0.447266V47.9364H46.4991V46.4034Z" fill="white"/>
<path d="M70.1313 26.4751L72.0475 31.9043H68.279L70.1313 26.4751ZM68.6623 22.9622L63.0415 36.9502H66.4267L67.4487 34.1398H72.8139L73.8359 36.9502H77.2211L71.6004 22.9622H68.6623Z" fill="white"/>
<path d="M74.5391 18.1716V20.8543H78.9462V31.9041H82.0121V20.8543H86.4193V18.1716H74.5391Z" fill="white"/>
<path d="M93.6366 34.2039H88.2714L87.2494 37.0142H83.8642L89.4849 23.0262H92.4231L98.0438 37.0142H94.6586L93.6366 34.2039ZM90.954 26.4753L89.0378 31.9045H92.8063L90.954 26.4753Z" fill="white"/>
<path d="M102.323 27.1776C102.323 28.1995 103.089 28.3912 105.069 28.5828C109.221 28.966 110.435 29.7963 110.435 32.7345C110.435 35.2255 108.838 37.2055 104.303 37.2055C102.898 37.2055 100.471 36.8223 99.5124 36.3752V33.5648C100.598 34.0119 102.451 34.3951 104.303 34.3951C106.538 34.3951 107.369 33.8203 107.369 32.6706C107.369 31.5848 106.666 31.2015 104.686 31.0738C100.534 30.6906 99.3208 29.7963 99.3208 27.1137C99.3208 24.3672 101.045 22.7065 105.133 22.7065C106.538 22.7065 108.646 22.962 109.86 23.473V26.2834C108.646 25.8363 106.922 25.453 105.133 25.453C103.025 25.5169 102.323 26.0279 102.323 27.1776Z" fill="white"/>
<path d="M84.056 45.2536C83.3534 45.2536 82.8424 45.8285 82.8424 46.5949C82.8424 47.4253 83.3534 47.9362 84.1838 47.9362C84.5031 47.9362 84.8225 47.8724 85.078 47.6807V47.2336L85.0141 47.2975C84.7586 47.4891 84.5031 47.553 84.1838 47.553C83.7367 47.553 83.2895 47.2336 83.2895 46.6588H85.2057V46.4033C85.1418 45.6368 84.6947 45.2536 84.056 45.2536ZM83.3534 46.2756C83.4812 45.8923 83.7366 45.6368 84.1199 45.6368C84.567 45.6368 84.7586 45.8285 84.8225 46.2756H83.3534ZM85.5889 47.8724H86.036V44.04H85.5889V47.8724ZM79.2017 45.2536C78.9462 45.2536 78.6269 45.3175 78.3714 45.4452V45.8923L78.4353 45.8285C78.6269 45.7007 78.8824 45.6368 79.1379 45.6368C79.4572 45.6368 79.6488 45.7646 79.6488 46.0839V46.3394H79.3933C78.563 46.3394 78.1159 46.5949 78.1159 47.1059C78.1159 47.6169 78.4991 47.8724 79.2656 47.8724C79.5211 47.8724 79.7766 47.8085 79.9682 47.8085V46.0201C80.0959 45.5091 79.7766 45.2536 79.2017 45.2536ZM79.6488 47.553C79.5211 47.553 79.4572 47.553 79.3295 47.553C79.0101 47.553 78.563 47.4891 78.563 47.1698C78.563 46.7865 79.074 46.7227 79.3933 46.7227H79.585V47.553H79.6488ZM75.6888 47.553C75.4333 47.553 75.3694 47.4253 75.3694 47.1698V45.7007H76.072V45.3175H75.3694V44.6788H74.9223V45.3175H74.5391V45.7007H74.9223V47.2336C74.9223 47.7446 75.1778 48.0001 75.6249 48.0001C75.8165 48.0001 76.0081 47.9362 76.1997 47.8724V47.4891H76.1359C76.0081 47.4891 75.8804 47.553 75.6888 47.553ZM81.565 47.4253L80.7985 45.3175H80.3514L81.3734 47.8724H81.8205L82.8424 45.2536H82.3953L81.565 47.4253ZM77.6049 45.2536C77.2856 45.2536 76.9662 45.3814 76.6468 45.5091V47.8724H77.0939V45.7646C77.2217 45.7007 77.4133 45.6368 77.6049 45.6368C77.6688 45.6368 77.8604 45.6368 78.052 45.7007H78.1159V45.3175H78.052C77.8604 45.2536 77.7327 45.2536 77.6049 45.2536ZM88.9742 45.2536C88.7187 45.2536 88.3993 45.3175 88.2077 45.4452V45.8923L88.2716 45.8285C88.4632 45.7007 88.7187 45.6368 88.9742 45.6368C89.2935 45.6368 89.4851 45.7646 89.4851 46.0839V46.3394H89.2297C88.3993 46.3394 87.9522 46.5949 87.9522 47.1059C87.9522 47.6169 88.3354 47.8724 89.1019 47.8724C89.3574 47.8724 89.6129 47.8085 89.8045 47.8085V46.0201C89.8684 45.5091 89.549 45.2536 88.9742 45.2536ZM89.4213 47.553C89.2935 47.553 89.2297 47.553 89.1019 47.553C88.7825 47.553 88.3354 47.4891 88.3354 47.1698C88.3354 46.7865 88.8464 46.7227 89.1658 46.7227H89.3574V47.553H89.4213ZM101.174 45.3175C101.046 45.2536 100.854 45.2536 100.663 45.2536C99.8324 45.2536 99.2576 45.8285 99.2576 46.5949C99.2576 47.4253 99.8324 47.9362 100.727 47.9362C100.982 47.9362 101.301 47.8724 101.557 47.8724H101.621V44.04H101.174V45.3175V45.3175ZM101.174 47.553C101.046 47.553 100.918 47.553 100.727 47.553C100.088 47.553 99.6408 47.1698 99.6408 46.5949C99.6408 46.0201 100.024 45.6368 100.663 45.6368C100.854 45.6368 101.046 45.7007 101.174 45.7646V47.553V47.553ZM102.451 44.3594C102.26 44.3594 102.132 44.4871 102.132 44.6788C102.132 44.8065 102.26 44.9981 102.451 44.9981C102.643 44.9981 102.771 44.8704 102.771 44.6788C102.771 44.4871 102.643 44.3594 102.451 44.3594ZM91.5929 47.553C91.0181 47.553 90.6348 47.1698 90.6348 46.5949C90.6348 45.9562 91.0819 45.6368 91.5291 45.6368C91.7845 45.6368 91.9762 45.7007 92.2316 45.8923L92.2955 45.9562V45.5091C92.04 45.3814 91.8484 45.3175 91.5291 45.3175C90.8903 45.3175 90.1877 45.7646 90.1877 46.6588C90.1877 47.553 90.8903 48.0001 91.5291 48.0001C91.7845 48.0001 92.04 47.9362 92.2955 47.8085V47.2336L92.2316 47.2975C92.04 47.4891 91.8484 47.553 91.5929 47.553ZM106.028 45.2536C105.325 45.2536 104.814 45.8285 104.814 46.5949C104.814 47.4253 105.325 47.9362 106.156 47.9362C106.475 47.9362 106.794 47.8724 107.05 47.6807V47.2336L106.986 47.2975C106.731 47.4891 106.475 47.553 106.156 47.553C105.709 47.553 105.262 47.2336 105.262 46.6588H107.178V46.4033C107.114 45.6368 106.731 45.2536 106.028 45.2536ZM105.262 46.2756C105.389 45.8923 105.645 45.6368 106.028 45.6368C106.475 45.6368 106.667 45.8285 106.731 46.2756H105.262ZM109.413 44.04V45.3175C109.286 45.2536 109.094 45.2536 108.902 45.2536C108.072 45.2536 107.497 45.8285 107.497 46.5949C107.497 47.4253 108.072 47.9362 108.966 47.9362C109.222 47.9362 109.541 47.8724 109.796 47.8724V44.04H109.413ZM109.413 47.553C109.286 47.553 109.158 47.553 108.966 47.553C108.327 47.553 107.88 47.1698 107.88 46.5949C107.88 46.0201 108.264 45.6368 108.902 45.6368C109.094 45.6368 109.286 45.7007 109.413 45.7646V47.553V47.553ZM104.176 47.553C103.92 47.553 103.856 47.4253 103.856 47.1698V45.7007H104.559V45.3175H103.856V44.6788H103.409V45.3175H103.026V45.7007H103.409V47.2336C103.409 47.7446 103.665 48.0001 104.112 48.0001C104.303 48.0001 104.495 47.9362 104.687 47.8724V47.4891H104.623C104.431 47.4891 104.303 47.553 104.176 47.553ZM93.9562 47.553C93.3813 47.553 92.9981 47.1698 92.9981 46.5949C92.9981 45.9562 93.4452 45.6368 93.9562 45.6368C94.2117 45.6368 94.4033 45.7007 94.6588 45.8923L94.7227 45.9562V45.5091C94.4672 45.3814 94.2756 45.3175 93.9562 45.3175C93.3175 45.3175 92.6149 45.7646 92.6149 46.6588C92.6149 47.553 93.3175 48.0001 93.9562 48.0001C94.2117 48.0001 94.4672 47.9362 94.7227 47.8085V47.2336L94.6588 47.2975C94.4033 47.4891 94.2117 47.553 93.9562 47.553ZM96.1278 45.2536C95.8085 45.2536 95.4891 45.3814 95.1698 45.5091V47.8724H95.6169V45.7646C95.7446 45.7007 95.9362 45.6368 96.1278 45.6368C96.1917 45.6368 96.3833 45.6368 96.5749 45.7007H96.6388V45.3175H96.5749C96.3833 45.2536 96.2556 45.2536 96.1278 45.2536ZM102.26 47.8724H102.707V45.2536H102.26V47.8724ZM97.7885 45.2536C97.0859 45.2536 96.5749 45.8285 96.5749 46.5949C96.5749 47.4253 97.0859 47.9362 97.9163 47.9362C98.2356 47.9362 98.555 47.8724 98.8105 47.6807V47.2336L98.7466 47.2975C98.4911 47.4891 98.2356 47.553 97.9163 47.553C97.4692 47.553 97.022 47.2336 97.022 46.6588H98.9382V46.4033C98.9382 45.6368 98.4911 45.2536 97.7885 45.2536ZM97.022 46.2756C97.1498 45.8923 97.4053 45.6368 97.7885 45.6368C98.2356 45.6368 98.4272 45.8285 98.4911 46.2756H97.022Z" fill="white"/>
<path d="M82.4589 39.3133L80.4789 37.3333L78.4988 39.3133H63.2334V41.6766H79.0737H79.2653L80.4789 40.463L81.6924 41.6766H81.8841H109.86V39.3133H82.4589Z" fill="white"/>
<path d="M56.2076 15.7446H54.9302V47.9362H56.2076V15.7446Z" fill="white"/>
</g>
<defs>
<clipPath id="clip0_318_7765">
<rect width="112" height="48" fill="white"/>
</clipPath>
</defs>
</svg>
