<svg width="480" height="384" viewBox="0 0 480 384" fill="none" xmlns="http://www.w3.org/2000/svg">
<g clip-path="url(#clip0_2114_47)">
<path d="M62.1546 0L52.2929 34.6816L43.2775 0H32.2935L23.3425 34.6816L13.49 0H3.83984L18.0345 44.8193H28.5953L37.3991 10.8369L46.2121 44.8193H57.1134L71.308 0H62.1546Z" fill="white"/>
<path d="M119.752 9.19937L126.606 26.9633H112.899L119.752 9.19937ZM114.941 0L96.9009 44.8193H106.1L110.019 34.746H129.669L133.514 44.8193H143.229L125.143 0H114.941Z" fill="white"/>
<path d="M219.041 0V30.6983L198.13 0H188.692V44.8193H197.431V14.4706L218.341 44.8193H227.78V0H219.041Z" fill="white"/>
<path d="M286.435 8.27943V36.5675H292.378C301.955 36.5675 308.321 30.9743 308.321 22.3729C308.321 13.7715 301.955 8.27943 292.314 8.27943H286.435ZM277.484 0H292.378C307.097 0 317.695 9.37416 317.695 22.5109C317.695 35.6475 307.272 44.8193 292.7 44.8193H277.484V0Z" fill="white"/>
<path d="M365.228 0V44.8193H394.243V36.5675H373.967V26.3562H391.446V18.1044H373.967V8.17824H394.243V0H365.228Z" fill="white"/>
<path d="M450.11 7.69067V20.625H458.003C462.603 20.625 465.63 18.04 465.63 14.121C465.63 10.2021 462.622 7.68147 458.003 7.68147L450.11 7.69067ZM441.371 0H457.304C467.865 0 474.847 5.59322 474.847 14.121C474.847 20.2754 471.278 24.8199 465.409 27.0001L475.832 44.8285H465.713L456.541 28.3157H450.101V44.8193H441.362L441.371 0Z" fill="white"/>
<path d="M27.9608 257.076L11.4663 227.151H21.1808L32.5053 247.849L43.9769 227.151H53.2038L36.7002 257.076V271.97H27.9608V257.076Z" fill="white"/>
<path d="M132.834 249.597C132.834 241.493 126.615 234.878 118.924 234.878C111.233 234.878 105.125 241.456 105.125 249.597C105.125 257.739 111.344 264.215 118.924 264.215C126.504 264.215 132.834 257.711 132.834 249.597ZM142.134 249.597C142.087 254.171 140.688 258.628 138.113 262.408C135.539 266.188 131.903 269.122 127.665 270.841C123.427 272.56 118.775 272.987 114.294 272.068C109.814 271.148 105.706 268.925 102.486 265.676C99.2669 262.427 97.0805 258.299 96.2021 253.81C95.3237 249.322 95.7926 244.674 97.5498 240.451C99.307 236.229 102.274 232.62 106.077 230.08C109.881 227.54 114.35 226.181 118.924 226.176C125.107 226.205 131.026 228.689 135.379 233.081C139.731 237.473 142.161 243.414 142.134 249.597Z" fill="white"/>
<path d="M198.342 241.631V271.97H189.603V227.151H199.042L219.952 257.849V227.151H228.691V271.97H219.253L198.342 241.631Z" fill="white"/>
<path d="M287.346 235.403V263.718H293.289C302.865 263.718 309.231 258.125 309.231 249.524C309.231 240.922 302.865 235.403 293.215 235.403H287.346ZM278.395 227.123H293.289C308.008 227.123 318.596 236.497 318.596 249.643C318.596 262.642 308.183 271.942 293.638 271.942H278.395V227.123Z" fill="white"/>
<path d="M366.838 227.151H395.853V235.338H375.577V245.264H393.056V253.516H375.577V263.718H395.853V271.97H366.838V227.151Z" fill="white"/>
<path d="M451.085 234.841V247.776H458.988C463.587 247.776 466.605 245.191 466.605 241.281C466.605 237.371 463.596 234.841 458.988 234.841H451.085ZM442.346 227.151H458.288C468.849 227.151 475.841 232.744 475.841 241.281C475.841 247.426 472.271 251.971 466.402 254.16L476.816 271.988H466.697L457.497 255.494H451.058V271.988H442.318L442.346 227.151Z" fill="white"/>
<path d="M46.7733 135.985C46.7733 127.88 40.5453 121.266 32.8547 121.266C25.164 121.266 19.0556 127.844 19.0556 135.985C19.0556 144.127 25.2836 150.603 32.9007 150.603C40.5177 150.603 46.8193 144.099 46.8193 135.985H46.7733ZM56.1107 135.985C56.0635 140.558 54.6645 145.016 52.0899 148.796C49.5153 152.576 45.88 155.51 41.6417 157.229C37.4033 158.948 32.7512 159.374 28.2709 158.455C23.7905 157.536 19.6822 155.312 16.4628 152.064C13.2435 148.815 11.057 144.687 10.1786 140.198C9.30025 135.71 9.76917 131.062 11.5264 126.839C13.2836 122.616 16.2506 119.008 20.0539 116.468C23.8573 113.928 28.327 112.569 32.9007 112.563C39.084 112.593 45.0027 115.076 49.3551 119.469C53.7076 123.861 56.1376 129.802 56.1107 135.985Z" fill="white"/>
<path d="M230.439 113.539H239.178V139.968C239.178 146.334 243.024 150.603 248.819 150.603C254.615 150.603 258.331 146.408 258.331 140.042V113.539H267.071V140.116C267.071 151.652 259.711 159.342 248.672 159.342C237.633 159.342 230.43 151.652 230.43 140.116L230.439 113.539Z" fill="white"/>
<path d="M461.297 121.726V158.358H452.557V121.726H439.273V113.539H474.654V121.726H461.297Z" fill="white"/>
<path d="M35.3893 384.442H26.8799V340.818H35.3893V384.442Z" fill="white"/>
<path d="M128.993 370.689V340.8L137.503 340.818V384.442H128.303L107.945 354.893V384.46H99.4355V340.818H108.635L128.993 370.689Z" fill="white"/>
<path fill-rule="evenodd" clip-rule="evenodd" d="M445.051 340.377L427.489 384.018H436.413L440.221 374.212H459.347L463.091 384.018H472.557L454.995 340.377H445.051ZM449.752 349.346L456.449 366.632H443.11L449.752 349.346Z" fill="white"/>
<path d="M365.679 340.358L356.075 374.129L347.299 340.377H336.609L327.897 374.147L318.302 340.377H308.9L322.699 384.018H332.984L341.558 350.901L350.141 384.018H360.776L374.575 340.377L365.679 340.358Z" fill="white"/>
</g>
<defs>
<clipPath id="clip0_2114_47">
<rect width="480" height="384" fill="white"/>
</clipPath>
</defs>
</svg>
