<svg xmlns="http://www.w3.org/2000/svg" width="48" height="48" id="plane"><path fill-rule="evenodd" d="M24 0A24 24 0 0 0 0 24a24 24 0 0 0 24 24 24 24 0 0 0 24-24A24 24 0 0 0 24 0zm-7.404 10.008h.031a.498.498 0 0 1 .344.062l11.593 5.688 3.407-3.406a2.81 2.81 0 0 1 1.968-.813c.704 0 1.403.278 1.938.813a2.74 2.74 0 0 1 0 3.875l-3.406 3.406 5.687 11.625a.513.513 0 0 1-.094.562l-1.906 1.907c-.204.22-.614.186-.781-.063l-7.094-9.844-8.281 8.25.406.688.875 1.5.875 1.5c.101.19.06.444-.094.594l-.937.968-.969.938a.522.522 0 0 1-.75-.031l-3.75-4.97-.25.25c-.376.377-1.095-.342-.719-.718l.25-.25-4.968-3.75a.522.522 0 0 1-.032-.75l.938-.969.969-.937a.514.514 0 0 1 .593-.094l1.5.875 1.532.875.656.406 8.25-8.25-9.844-7.125a.522.522 0 0 1-.062-.75l1.906-1.906a.507.507 0 0 1 .219-.156zm.25 1.094-1.25 1.25 9.5 6.875 2.75-2.75-11-5.375zm17.093 1.437c-.444 0-.904.155-1.25.5l-3.625 3.625a.48.48 0 0 1-.03.031l-3.532 3.532-8.906 8.937a.514.514 0 0 1-.594.094l-.281-.156-.75-.438-1.532-.875-1.156-.687-.687.687-.532.563 4.563 3.5 1.625-1.594a.508.508 0 0 1 .25-.156c.44-.115.792.592.437.875l-1.593 1.593 3.531 4.594.531-.562.688-.657-.688-1.187-.875-1.5-.437-.781-.125-.25a.515.515 0 0 1 .093-.594l8.813-8.813s2.453-2.472 3.687-3.687l.063-.063 3.531-3.562a1.73 1.73 0 0 0 0-2.469 1.686 1.686 0 0 0-1.219-.5zm-17.53 2.656.718.72-1.281 1.25-.688-.688 1.25-1.282zm1.905 1.907.72.718-2.532 2.532-.719-.688 2.531-2.562zm13.407 3.28-2.719 2.72 6.875 9.5 1.219-1.22-5.375-11zm-1.313 8.782.688.719-2.532 2.531-.718-.687 2.562-2.563zm1.906 1.906.688.72-1.281 1.28-.688-.718 1.281-1.282z"></path></svg>