<svg width="172" height="32" viewBox="0 0 172 32" fill="none" xmlns="http://www.w3.org/2000/svg">
<g clip-path="url(#clip0_466_15594)">
<path d="M11.7981 8.39457L9.67937 0.256361L9.67628 0.234741H7.01708L4.91072 8.39457L2.59126 0.234741H0L3.6259 10.9519H6.18319L8.25557 2.96498L10.3187 10.9302L10.3249 10.9519H12.9655L16.3475 0.274892L16.3598 0.234741H14.1176L11.7981 8.39457Z" fill="black"/>
<path d="M33.4454 8.92888H28.6243V6.56309H32.7783V4.54012H28.6243V2.24227H33.4454V0.234741H26.4839V10.9519H33.4454V8.92888Z" fill="black"/>
<path d="M49.6076 4.49686C48.4926 4.13551 47.529 3.82357 47.529 3.05762C47.529 2.42139 48.122 2.02297 49.0733 2.02297C49.5531 2.02103 50.0266 2.13182 50.4558 2.3464C50.885 2.56098 51.2577 2.87336 51.5441 3.25837L51.5657 3.28926L53.0204 1.8531L53.0389 1.83457V1.81295C52.239 0.676382 50.7936 0 49.1566 0C46.8464 0 45.2342 1.28482 45.2342 3.12248C45.2342 5.28443 47.0565 5.86507 48.6656 6.39012C49.8299 6.77309 50.8275 7.10047 50.8275 7.95908C50.8275 8.72194 50.1789 9.15742 49.0455 9.15742C48.5247 9.1691 48.0087 9.05538 47.5411 8.82586C47.0734 8.59634 46.6678 8.25775 46.3585 7.83862L46.3368 7.81083L44.8142 9.23154L44.8296 9.25316C45.4165 10.1303 46.6179 11.1804 49.0115 11.1804C51.4051 11.1804 53.1223 9.806 53.1223 7.84171C53.1223 5.63961 51.1765 5.00647 49.6076 4.49686Z" fill="black"/>
<path d="M67.8328 10.9519H69.9732V2.24227H73.1482V0.234741H64.6733V2.24227H67.8328V10.9519Z" fill="black"/>
<path d="M92.7354 8.92888H87.9112V6.56309H92.0683V4.54012H87.9112V2.24227H92.7354V0.234741H85.774V10.9519H92.7354V8.92888Z" fill="black"/>
<path d="M107.514 7.02939H108.993L111.155 10.9363V10.9518H113.626L111.14 6.69583C112.557 6.15843 113.37 5.04039 113.37 3.60733C113.381 3.13392 113.283 2.66433 113.082 2.23555C112.881 1.80678 112.583 1.43055 112.212 1.13652C111.33 0.490028 110.255 0.163207 109.163 0.20997H105.371V10.9487H107.511V7.02939H107.514ZM109.367 5.13922H107.514V2.12484H109.367C110.433 2.12484 111.149 2.74254 111.149 3.62277C111.149 4.50299 110.445 5.13922 109.361 5.13922H109.367Z" fill="black"/>
<path d="M133.553 7.46493L128.639 0.247095L128.63 0.234741H126.338V10.9519H128.479V3.80505L133.393 10.9395L133.402 10.9519H135.693V0.234741H133.553V7.46493Z" fill="black"/>
<path d="M9.51878 21.0513H7.04797L2.75495 31.7282L2.73642 31.7715H4.98176L5.90831 29.3779H10.5411L11.4491 31.7529V31.7715H13.8272L9.52804 21.0698L9.51878 21.0513ZM9.80292 27.4692H6.63411L8.21852 23.3615L9.80292 27.4692Z" fill="black"/>
<path d="M31.2835 27.3827C31.2835 28.8899 30.4094 29.8535 29.0536 29.8535C27.6977 29.8535 26.7897 28.8497 26.7897 27.358V21.0513H24.6494V27.3981C24.6494 30.1531 26.4067 32 29.0196 32C31.6325 32 33.4238 30.1469 33.4238 27.3981V21.0513H31.2835V27.3827Z" fill="black"/>
<path d="M49.6076 25.3257C48.4926 24.9644 47.529 24.6524 47.529 23.8865C47.529 23.2502 48.122 22.8518 49.0733 22.8518C49.5531 22.8499 50.0266 22.9607 50.4558 23.1753C50.885 23.3898 51.2577 23.7022 51.5441 24.0872L51.5657 24.1181L53.0204 22.6789L53.0389 22.6603V22.6387C52.2544 21.5052 50.809 20.8289 49.1721 20.8289C46.8619 20.8289 45.2497 22.1137 45.2497 23.9513C45.2497 26.0978 47.0719 26.6939 48.681 27.219C49.8454 27.6019 50.843 27.9293 50.843 28.7879C50.843 29.5508 50.1944 29.9863 49.0609 29.9863C48.5401 29.998 48.0241 29.8842 47.5565 29.6547C47.0889 29.4252 46.6833 29.0866 46.3739 28.6675L46.3523 28.6397L44.8297 30.0604L44.8451 30.082C45.4319 30.9592 46.6303 32.0092 49.0269 32.0092C51.4236 32.0092 53.1223 30.6225 53.1223 28.6582C53.1223 26.4561 51.1765 25.823 49.6076 25.3257Z" fill="black"/>
<path d="M64.6733 23.0588H67.8328V31.7684H69.9732V23.0588H73.1482V21.0513H64.6733V23.0588Z" fill="black"/>
<path d="M93.7979 24.4394C93.8094 23.966 93.7107 23.4964 93.5097 23.0676C93.3087 22.6388 93.0109 22.2626 92.6397 21.9686C91.7585 21.3221 90.6833 20.9952 89.5914 21.042H85.7709V31.7622H87.9112V27.846H89.3906L91.5526 31.7529H94.0234L91.5526 27.497C92.9856 26.9781 93.7979 25.8601 93.7979 24.4394ZM91.5433 24.4394C91.5433 25.3659 90.8453 25.9558 89.7612 25.9558H87.9081V22.9414H89.7612C90.8268 22.9414 91.5433 23.5437 91.5433 24.4394Z" fill="black"/>
<path d="M111.044 21.0513H108.573L104.277 31.7282L104.259 31.7715H106.504L107.431 29.3779H112.063L112.971 31.7529V31.7715H115.349L111.05 21.0729L111.044 21.0513ZM111.328 27.4692H108.159L109.744 23.3615L111.328 27.4692Z" fill="black"/>
<path d="M129.776 21.0513H127.636V31.7684H134.977V29.7454H129.776V21.0513Z" fill="black"/>
<path d="M149.178 21.0513H147.038V31.7715H149.178V21.0513Z" fill="black"/>
<path d="M167.131 21.0698V21.0513H164.661L160.364 31.7282L160.346 31.7715H162.591L163.518 29.3779H168.151L169.059 31.7529V31.7715H171.437L167.131 21.0698ZM167.397 27.4692H164.237L165.822 23.3615L167.397 27.4692Z" fill="black"/>
</g>
<defs>
<clipPath id="clip0_466_15594">
<rect width="171.437" height="32" fill="white"/>
</clipPath>
</defs>
</svg>
