<svg width="34" height="32" viewBox="0 0 34 32" fill="none" xmlns="http://www.w3.org/2000/svg">
<path fill-rule="evenodd" clip-rule="evenodd" d="M3.46364 23.4653C1.54924 22.4342 0.250732 20.3894 0.250732 18.0421C0.250732 15.695 1.54889 13.6504 3.46288 12.6192C3.65958 11.9565 4.16836 11.4279 4.8189 11.2039C5.39352 5.05196 10.6377 0.25 17.0036 0.25C23.3694 0.25 28.6135 5.05177 29.1883 11.2035C29.8426 11.4275 30.3571 11.9572 30.5496 12.6261C32.4566 13.6595 33.749 15.7002 33.749 18.0421C33.749 20.3842 32.4563 22.4251 30.5488 23.4584C30.3599 24.1122 29.863 24.6327 29.229 24.8641C29.1015 27.8779 26.5859 30.2663 23.5224 30.2663H20.8597C20.5981 31.1251 19.7996 31.7499 18.8552 31.7499H15.6767C14.5196 31.7499 13.5817 30.8119 13.5817 29.6549C13.5817 28.4978 14.5197 27.5598 15.6767 27.5598H18.8552C19.6946 27.5598 20.4187 28.0534 20.7531 28.7663H23.5224C25.7786 28.7663 27.6054 27.027 27.7275 24.8558C26.9246 24.5527 26.3473 23.7842 26.3473 22.8717V13.2103C26.3473 12.314 26.9043 11.5567 27.6848 11.2428C27.1346 5.919 22.5706 1.75 17.0036 1.75C11.4361 1.75 6.87176 5.91977 6.3222 11.2443C7.10606 11.5626 7.65879 12.3316 7.65879 13.2297V22.8522C7.65879 24.0353 6.69975 24.9943 5.51671 24.9943C4.54671 24.9943 3.72729 24.3496 3.46364 23.4653ZM3.37463 14.4887C2.38353 15.3375 1.75073 16.6124 1.75073 18.0421C1.75073 19.4717 2.38353 20.7466 3.37463 21.5954V14.4887ZM32.249 18.0421C32.249 19.4686 31.6189 20.7412 30.6314 21.5899V14.4942C31.6189 15.3429 32.249 16.6155 32.249 18.0421ZM28.4894 12.5876C28.1248 12.5876 27.8473 12.8763 27.8473 13.2103V22.8717C27.8473 23.2057 28.1248 23.4943 28.4894 23.4943C28.8539 23.4943 29.1314 23.2057 29.1314 22.8717V13.2103C29.1314 12.8763 28.8539 12.5876 28.4894 12.5876ZM4.87463 13.2297C4.87463 12.8751 5.1621 12.5876 5.51671 12.5876C5.87132 12.5876 6.15879 12.8751 6.15879 13.2297V22.8522C6.15879 23.2069 5.87132 23.4943 5.51671 23.4943C5.1621 23.4943 4.87463 23.2069 4.87463 22.8522V13.2297ZM15.0817 29.6549C15.0817 29.3262 15.3481 29.0598 15.6767 29.0598H18.8552C19.1839 29.0598 19.4503 29.3262 19.4503 29.6549C19.4503 29.9835 19.1839 30.2499 18.8552 30.2499H15.6767C15.3481 30.2499 15.0817 29.9835 15.0817 29.6549Z" fill="white"/>
</svg>
