<svg width="24" height="24" viewBox="0 0 24 24" fill="none" xmlns="http://www.w3.org/2000/svg">
<path fill-rule="evenodd" clip-rule="evenodd" d="M12 21.5999C17.3019 21.5999 21.6 17.3018 21.6 11.9999C21.6 6.69797 17.3019 2.3999 12 2.3999C6.69807 2.3999 2.4 6.69797 2.4 11.9999C2.4 17.3018 6.69807 21.5999 12 21.5999ZM11.4656 8.60144C11.0974 8.35596 10.624 8.33307 10.2338 8.5419C9.84358 8.75072 9.6 9.15735 9.6 9.5999V14.3999C9.6 14.8425 9.84358 15.2491 10.2338 15.4579C10.624 15.6667 11.0974 15.6439 11.4656 15.3984L15.0656 12.9984C15.3995 12.7758 15.6 12.4011 15.6 11.9999C15.6 11.5987 15.3995 11.224 15.0656 11.0014L11.4656 8.60144Z" fill="white"/>
</svg>
