<svg width="30" height="30" viewBox="0 0 30 30" fill="none" xmlns="http://www.w3.org/2000/svg">
<path d="M21.6797 13.7548C21.9585 13.4484 21.9361 12.9741 21.6298 12.6953C21.3234 12.4165 20.8491 12.4389 20.5703 12.7452L13.1266 20.9251L10.2698 18.1781C9.97125 17.891 9.49647 17.9003 9.20938 18.1989C8.92228 18.4975 8.93159 18.9723 9.23017 19.2594L12.6427 22.5406C12.7886 22.681 12.9851 22.7563 13.1875 22.7496C13.3899 22.7428 13.5809 22.6545 13.7172 22.5048L21.6797 13.7548Z" fill="#9CA3AF"/>
<path fill-rule="evenodd" clip-rule="evenodd" d="M6.38462 0.25C6.79883 0.25 7.13462 0.585786 7.13462 1V2.40381H22.8654V1C22.8654 0.585786 23.2012 0.25 23.6154 0.25C24.0296 0.25 24.3654 0.585786 24.3654 1V2.40381H25.7692C27.9678 2.40381 29.75 4.18606 29.75 6.38458V25.7692C29.75 27.9677 27.9678 29.75 25.7692 29.75H4.23077C2.03225 29.75 0.25 27.9677 0.25 25.7692V6.38458C0.25 4.18606 2.03225 2.40381 4.23077 2.40381H5.63462V1C5.63462 0.585786 5.9704 0.25 6.38462 0.25ZM6.38462 3.90385L6.37702 3.90381H4.23077C2.86068 3.90381 1.75 5.01449 1.75 6.38458V7.78846H28.25V6.38458C28.25 5.01449 27.1393 3.90381 25.7692 3.90381H23.623L23.6154 3.90385L23.6078 3.90381H6.39221L6.38462 3.90385ZM1.75 25.7692V9.28846H28.25V25.7692C28.25 27.1393 27.1393 28.25 25.7692 28.25H4.23077C2.86068 28.25 1.75 27.1393 1.75 25.7692Z" fill="#9CA3AF"/>
</svg>
