<svg width="34" height="34" viewBox="0 0 34 34" fill="none" xmlns="http://www.w3.org/2000/svg">
<path fill-rule="evenodd" clip-rule="evenodd" d="M18.655 16.4481C18.655 17.6669 17.6669 18.655 16.4481 18.655C15.2293 18.655 14.2412 17.6669 14.2412 16.4481C14.2412 15.2293 15.2293 14.2412 16.4481 14.2412C17.6669 14.2412 18.655 15.2293 18.655 16.4481ZM17.155 16.4481C17.155 16.8385 16.8385 17.155 16.4481 17.155C16.0577 17.155 15.7412 16.8385 15.7412 16.4481C15.7412 16.0577 16.0577 15.7412 16.4481 15.7412C16.8385 15.7412 17.155 16.0577 17.155 16.4481Z" fill="#9CA3AF"/>
<path fill-rule="evenodd" clip-rule="evenodd" d="M16.4481 10.9311C17.6669 10.9311 18.655 9.94307 18.655 8.72423C18.655 7.5054 17.6669 6.51733 16.4481 6.51733C15.2293 6.51733 14.2412 7.5054 14.2412 8.72423C14.2412 9.94307 15.2293 10.9311 16.4481 10.9311ZM16.4481 9.43113C16.8385 9.43113 17.155 9.11464 17.155 8.72423C17.155 8.33382 16.8385 8.01733 16.4481 8.01733C16.0577 8.01733 15.7412 8.33382 15.7412 8.72423C15.7412 9.11464 16.0577 9.43113 16.4481 9.43113Z" fill="#9CA3AF"/>
<path fill-rule="evenodd" clip-rule="evenodd" d="M20.8619 24.1724C20.8619 26.0007 19.3798 27.4828 17.5516 27.4828C15.7233 27.4828 14.2412 26.0007 14.2412 24.1724C14.2412 22.3442 15.7233 20.8621 17.5516 20.8621C19.3798 20.8621 20.8619 22.3442 20.8619 24.1724ZM19.3619 24.1724C19.3619 25.1722 18.5514 25.9828 17.5516 25.9828C16.5517 25.9828 15.7412 25.1722 15.7412 24.1724C15.7412 23.1726 16.5517 22.3621 17.5516 22.3621C18.5514 22.3621 19.3619 23.1726 19.3619 24.1724Z" fill="#9CA3AF"/>
<path fill-rule="evenodd" clip-rule="evenodd" d="M11.8846 14.0462C12.3865 13.177 12.0886 12.0655 11.2194 11.5636C10.3502 11.0618 9.23867 11.3596 8.73681 12.2288C8.23496 13.0981 8.53278 14.2096 9.40202 14.7114C10.2713 15.2133 11.3827 14.9155 11.8846 14.0462ZM10.5856 13.2962C10.6732 13.1444 10.6212 12.9503 10.4694 12.8627C10.3176 12.775 10.1235 12.827 10.0359 12.9788C9.94821 13.1306 10.0002 13.3247 10.152 13.4124C10.3038 13.5 10.4979 13.448 10.5856 13.2962Z" fill="#9CA3AF"/>
<path fill-rule="evenodd" clip-rule="evenodd" d="M25.5146 18.3263C26.4641 18.8745 26.7895 20.0887 26.2413 21.0382C25.693 21.9877 24.4789 22.3131 23.5293 21.7648C22.5798 21.2166 22.2545 20.0025 22.8027 19.0529C23.3509 18.1034 24.5651 17.7781 25.5146 18.3263ZM24.7646 19.6253C24.9967 19.7593 25.0762 20.0561 24.9422 20.2882C24.8082 20.5203 24.5114 20.5998 24.2793 20.4658C24.0472 20.3318 23.9677 20.035 24.1017 19.8029C24.2357 19.5708 24.5325 19.4913 24.7646 19.6253Z" fill="#9CA3AF"/>
<path fill-rule="evenodd" clip-rule="evenodd" d="M11.6037 20.1156C11.1915 19.4016 10.2786 19.157 9.56467 19.5692C8.85075 19.9814 8.60614 20.8943 9.01833 21.6082C9.43051 22.3221 10.3434 22.5667 11.0573 22.1546C11.7712 21.7424 12.0158 20.8295 11.6037 20.1156ZM10.3146 20.8681C10.3154 20.8674 10.3163 20.8665 10.317 20.8656C10.3182 20.8639 10.3183 20.8632 10.3181 20.8638C10.3179 20.8644 10.3183 20.8638 10.318 20.8617L10.3177 20.8602L10.3172 20.8583L10.316 20.8571L10.3147 20.8559C10.313 20.8546 10.3123 20.8546 10.3129 20.8548C10.3135 20.8549 10.3129 20.8546 10.3108 20.8549C10.3097 20.855 10.3085 20.8553 10.3074 20.8556C10.3066 20.8564 10.3057 20.8573 10.305 20.8582C10.3037 20.8599 10.3037 20.8606 10.3039 20.86C10.3039 20.8596 10.304 20.8597 10.3039 20.86C10.3039 20.8603 10.3039 20.8611 10.304 20.8621C10.3041 20.8632 10.3044 20.8644 10.3048 20.8655L10.3059 20.8666L10.3073 20.8678L10.3091 20.869L10.3112 20.8689C10.3123 20.8687 10.3135 20.8685 10.3146 20.8681Z" fill="#9CA3AF"/>
<path fill-rule="evenodd" clip-rule="evenodd" d="M22.3096 10.7489C23.629 9.98709 25.3162 10.4392 26.078 11.7586C26.8397 13.078 26.3877 14.7652 25.0682 15.5269C23.7488 16.2887 22.0617 15.8366 21.2999 14.5172C20.5381 13.1978 20.9902 11.5106 22.3096 10.7489ZM23.0596 12.0479C23.6616 11.7003 24.4314 11.9066 24.7789 12.5086C25.1265 13.1106 24.9202 13.8803 24.3182 14.2279C23.7162 14.5755 22.9465 14.3692 22.5989 13.7672C22.2514 13.1652 22.4576 12.3955 23.0596 12.0479Z" fill="#9CA3AF"/>
<path fill-rule="evenodd" clip-rule="evenodd" d="M18.6553 1.75C19.0695 1.75 19.4053 1.41421 19.4053 1C19.4053 0.585786 19.0695 0.25 18.6553 0.25H15.3449C14.9307 0.25 14.5949 0.585786 14.5949 1C14.5949 1.41421 14.9307 1.75 15.3449 1.75H16.25V3.2069L16.2503 3.22682C14.2831 3.33222 12.4254 3.84978 10.762 4.69471L10.7536 4.67964L10.025 3.4177L10.809 2.96505C11.1677 2.75795 11.2906 2.29925 11.0835 1.94053C10.8764 1.58182 10.4177 1.45891 10.059 1.66602L7.19213 3.32119C6.83342 3.52829 6.71051 3.98699 6.91762 4.34571C7.12472 4.70443 7.58342 4.82733 7.94213 4.62023L8.72594 4.1677L9.45452 5.42964L9.46402 5.44565C7.8629 6.49209 6.49259 7.86236 5.4461 9.46345L5.42989 9.45382L4.16823 8.72541L4.62082 7.94151C4.82792 7.58279 4.70502 7.1241 4.3463 6.91699C3.98758 6.70989 3.52888 6.83279 3.32178 7.19151L2.49909 8.61645L2.49414 8.6249L2.4893 8.63341L1.66661 10.0584C1.4595 10.4171 1.58241 10.8758 1.94112 11.0829C2.29984 11.29 2.75854 11.1671 2.96564 10.8084L3.41823 10.0244L4.67989 10.7529L4.69514 10.7614C3.85006 12.425 3.33242 14.2829 3.22706 16.2503L3.2069 16.25H1.75L1.75 15.345C1.75 14.9308 1.41421 14.595 1 14.595C0.585786 14.595 0.25 14.9308 0.25 15.345V18.6553C0.25 19.0695 0.585786 19.4053 0.999999 19.4053C1.41421 19.4053 1.75 19.0695 1.75 18.6553L1.75 17.75H3.2069L3.22707 17.7497C3.33246 19.717 3.8501 21.5749 4.69514 23.2384L4.67989 23.2469L3.41812 23.9754L2.96554 23.1915C2.75844 22.8328 2.29974 22.7099 1.94102 22.917C1.5823 23.1241 1.4594 23.5828 1.6665 23.9415L3.32168 26.8084C3.52878 27.1671 3.98748 27.29 4.3462 27.0829C4.70492 26.8758 4.82782 26.4171 4.62072 26.0584L4.16812 25.2744L5.42989 24.546L5.44611 24.5363C6.49246 26.1372 7.86254 27.5073 9.46341 28.5537L9.45382 28.5699L8.72541 29.8315L7.94151 29.3789C7.58279 29.1718 7.1241 29.2947 6.91699 29.6535C6.70989 30.0122 6.83279 30.4709 7.19151 30.678L8.61638 31.5006L8.6249 31.5056L8.63347 31.5105L10.0584 32.3331C10.4171 32.5403 10.8758 32.4174 11.0829 32.0586C11.29 31.6999 11.1671 31.2412 10.8084 31.0341L10.0244 30.5815L10.7529 29.3199L10.7614 29.3047C12.4249 30.1499 14.2828 30.6676 16.2503 30.773L16.25 30.7931V32.25H15.3447C14.9305 32.25 14.5947 32.5858 14.5947 33C14.5947 33.4142 14.9305 33.75 15.3447 33.75H18.6551C19.0693 33.75 19.4051 33.4142 19.4051 33C19.4051 32.5858 19.0693 32.25 18.6551 32.25H17.75V30.7931L17.7497 30.773C19.7169 30.6676 21.5745 30.1501 23.2379 29.3052L23.2464 29.3204L23.975 30.5823L23.191 31.0349C22.8323 31.2421 22.7094 31.7007 22.9165 32.0595C23.1236 32.4182 23.5823 32.5411 23.941 32.334L26.8079 30.6788C27.1666 30.4717 27.2895 30.013 27.0824 29.6543C26.8753 29.2956 26.4166 29.1727 26.0579 29.3798L25.2741 29.8323L24.5455 28.5704L24.536 28.5543C26.1371 27.5079 27.5075 26.1377 28.554 24.5366L28.5701 24.5462L29.8318 25.2746L29.3792 26.0585C29.1721 26.4172 29.295 26.8759 29.6537 27.083C30.0124 27.2901 30.4711 27.1672 30.6782 26.8085L31.5009 25.3835L31.5059 25.3751L31.5107 25.3666L32.3334 23.9416C32.5405 23.5829 32.4176 23.1242 32.0589 22.9171C31.7002 22.71 31.2415 22.8329 31.0344 23.1916L30.5818 23.9756L29.3201 23.2471L29.305 23.2386C30.1501 21.5751 30.6678 19.7172 30.7732 17.7497L30.7931 17.75H32.25V18.655C32.25 19.0692 32.5858 19.405 33 19.405C33.4142 19.405 33.75 19.0692 33.75 18.655V15.3447C33.75 14.9305 33.4142 14.5947 33 14.5947C32.5858 14.5947 32.25 14.9305 32.25 15.3447V16.25H30.7931L30.7732 16.2503C30.6678 14.2829 30.1502 12.425 29.3052 10.7615L29.3201 10.7531L30.5819 10.0246L31.0345 10.8085C31.2416 11.1672 31.7003 11.2901 32.059 11.083C32.4177 10.8759 32.5406 10.4172 32.3335 10.0585L30.6783 7.19165C30.4712 6.83293 30.0125 6.71002 29.6538 6.91713C29.2951 7.12423 29.1722 7.58293 29.3793 7.94165L29.8319 8.72556L28.5701 9.45403L28.5542 9.46349C27.5078 7.86255 26.1377 6.4924 24.5368 5.44599L24.5462 5.43013L25.2746 4.16848L26.0585 4.62106C26.4172 4.82817 26.8759 4.70526 27.083 4.34654C27.2901 3.98782 27.1672 3.52913 26.8085 3.32202L25.3836 2.49933L25.3751 2.49438L25.3666 2.48954L23.9416 1.66685C23.5829 1.45974 23.1242 1.58265 22.9171 1.94137C22.71 2.30009 22.8329 2.75878 23.1916 2.96589L23.9756 3.41848L23.2471 4.68013L23.2388 4.69499C21.5752 3.84986 19.7172 3.33218 17.7497 3.22681L17.75 3.2069V1.75H18.6553ZM17.0001 29.293C23.7894 29.293 29.2932 23.7892 29.2932 16.9999C29.2932 10.2106 23.7894 4.70679 17.0001 4.70679C10.2108 4.70679 4.70703 10.2106 4.70703 16.9999C4.70703 23.7892 10.2108 29.293 17.0001 29.293Z" fill="#9CA3AF"/>
</svg>
