<svg width="30" height="28" viewBox="0 0 30 28" fill="none" xmlns="http://www.w3.org/2000/svg">
<path d="M4 3.15894C4 3.43508 3.77614 3.65894 3.5 3.65894C3.22386 3.65894 3 3.43508 3 3.15894C3 2.88279 3.22386 2.65894 3.5 2.65894C3.77614 2.65894 4 2.88279 4 3.15894Z" fill="white"/>
<path d="M5.5 3.65894C5.77614 3.65894 6 3.43508 6 3.15894C6 2.88279 5.77614 2.65894 5.5 2.65894C5.22386 2.65894 5 2.88279 5 3.15894C5 3.43508 5.22386 3.65894 5.5 3.65894Z" fill="white"/>
<path d="M8 3.15894C8 3.43508 7.77614 3.65894 7.5 3.65894C7.22386 3.65894 7 3.43508 7 3.15894C7 2.88279 7.22386 2.65894 7.5 2.65894C7.77614 2.65894 8 2.88279 8 3.15894Z" fill="white"/>
<path fill-rule="evenodd" clip-rule="evenodd" d="M3 0.25C1.48122 0.25 0.25 1.48122 0.25 3V21C0.25 22.5169 1.47559 23.75 2.99622 23.75H17.75C18.1642 23.75 18.5 23.4142 18.5 23C18.5 22.5858 18.1642 22.25 17.75 22.25H2.99622C2.30771 22.25 1.75 21.6922 1.75 21V6L26.25 6V15.75C26.25 16.1642 26.5858 16.5 27 16.5C27.4142 16.5 27.75 16.1642 27.75 15.75V3C27.75 1.48122 26.5188 0.25 25 0.25H3ZM26.25 4.5V3C26.25 2.30964 25.6904 1.75 25 1.75H3C2.30964 1.75 1.75 2.30964 1.75 3V4.5L26.25 4.5Z" fill="white"/>
<path fill-rule="evenodd" clip-rule="evenodd" d="M21.0103 12.9504C20.7917 12.7474 20.4736 12.6933 20.2002 12.8125C19.9268 12.9318 19.75 13.2017 19.75 13.5V25.1866C19.75 25.4803 19.9214 25.7469 20.1886 25.8689C20.4557 25.9908 20.7695 25.9456 20.9914 25.7532L22.7199 24.2543L24.3689 27.3524C24.5536 27.6995 24.975 27.845 25.3345 27.6858L27.7244 26.628C27.9064 26.5475 28.0489 26.398 28.1205 26.2124C28.1922 26.0267 28.1872 25.8203 28.1066 25.6384L26.6083 22.2569L29.0357 22.1413C29.3372 22.127 29.6008 21.9332 29.7044 21.6496C29.8081 21.366 29.7316 21.048 29.5103 20.8425L21.0103 12.9504ZM21.25 23.5435V15.2198L27.1822 20.7278L25.4434 20.8106C25.1963 20.8224 24.9708 20.9553 24.8409 21.1658C24.7109 21.3763 24.6931 21.6374 24.7933 21.8636L26.4312 25.56L25.3653 26.0319L23.6018 22.7186C23.4945 22.517 23.3012 22.3753 23.0767 22.3336C22.8522 22.2918 22.6209 22.3547 22.4484 22.5043L21.25 23.5435Z" fill="white"/>
</svg>
