<svg width="40" height="40" viewBox="0 0 40 40" fill="none" xmlns="http://www.w3.org/2000/svg">
<path fill-rule="evenodd" clip-rule="evenodd" d="M11.3075 11.5C11.6981 11.1094 12.3312 11.1094 12.7218 11.5L28.2781 27.0563C28.6686 27.4468 28.6686 28.08 28.2781 28.4705C27.8876 28.861 27.2544 28.861 26.8639 28.4705L11.3075 12.9142C10.917 12.5236 10.917 11.8905 11.3075 11.5Z" fill="white"/>
<path fill-rule="evenodd" clip-rule="evenodd" d="M11.7218 28.5C11.3312 28.1094 11.3312 27.4763 11.7218 27.0857L27.2781 11.5294C27.6686 11.1389 28.3018 11.1389 28.6923 11.5294C29.0828 11.9199 29.0828 12.5531 28.6923 12.9436L13.136 28.5C12.7454 28.8905 12.1123 28.8905 11.7218 28.5Z" fill="white"/>
</svg>
