<svg width="40" height="40" viewBox="0 0 40 40" fill="none" xmlns="http://www.w3.org/2000/svg">
<path fill-rule="evenodd" clip-rule="evenodd" d="M8 15C8 14.4477 8.44772 14 9 14L31 14C31.5523 14 32 14.4477 32 15C32 15.5523 31.5523 16 31 16L9 16C8.44772 16 8 15.5523 8 15Z" fill="white"/>
<path fill-rule="evenodd" clip-rule="evenodd" d="M8.01758 25C8.01758 24.4477 8.31605 24 8.68424 24H23.3509C23.7191 24 24.0176 24.4477 24.0176 25C24.0176 25.5523 23.7191 26 23.3509 26H8.68424C8.31605 26 8.01758 25.5523 8.01758 25Z" fill="white"/>
</svg>
