<svg width="24" height="24" viewBox="0 0 24 24" fill="none" xmlns="http://www.w3.org/2000/svg">
<path fill-rule="evenodd" clip-rule="evenodd" d="M22 5.92037C21.6253 6.0765 21.2428 6.20921 20.8525 6.3185C20.4621 6.42779 20.0562 6.50585 19.6347 6.55269C20.0562 6.30289 20.4231 5.98283 20.7354 5.59251C21.0476 5.20218 21.2818 4.76503 21.4379 4.28103C21.0476 4.51522 20.6339 4.71819 20.1967 4.88993C19.7596 5.06167 19.3068 5.19438 18.8384 5.28805C18.4637 4.88212 18.0187 4.56596 17.5035 4.33958C16.9883 4.11319 16.434 4 15.8408 4C14.7166 4 13.7525 4.39812 12.9485 5.19438C12.1444 5.99063 11.7424 6.95862 11.7424 8.09836C11.7424 8.25449 11.7502 8.41061 11.7658 8.56674C11.7814 8.72287 11.8126 8.879 11.8595 9.03513C11.0008 8.98829 10.1733 8.85558 9.37705 8.637C8.58079 8.41842 7.82358 8.12178 7.10539 7.74707C6.38719 7.37236 5.71585 6.9313 5.09133 6.42389C4.46682 5.91647 3.90476 5.35832 3.40515 4.74941C3.2178 5.04606 3.07728 5.37002 2.98361 5.72131C2.88993 6.0726 2.84309 6.43559 2.84309 6.8103C2.84309 7.51288 3.01093 8.16471 3.3466 8.76581C3.68228 9.3669 4.12334 9.84699 4.66979 10.2061C4.32631 10.2061 3.99844 10.1592 3.68618 10.0656C3.37393 9.9719 3.08509 9.84699 2.81967 9.69086C2.81967 9.70648 2.81967 9.71819 2.81967 9.72599C2.81967 9.7338 2.81967 9.74551 2.81967 9.76112C2.81967 10.7447 3.13192 11.6112 3.75644 12.3607C4.38096 13.1101 5.16159 13.5785 6.09836 13.7658C5.92662 13.8126 5.75098 13.8478 5.57143 13.8712C5.39188 13.8946 5.20843 13.9063 5.02108 13.9063C4.88056 13.9063 4.74785 13.9024 4.62295 13.8946C4.49805 13.8868 4.37315 13.8673 4.24824 13.8361C4.51366 14.6479 4.99375 15.3232 5.68853 15.8618C6.3833 16.4005 7.18345 16.6776 8.08899 16.6932C7.38641 17.2397 6.60188 17.669 5.73536 17.9813C4.86885 18.2935 3.95161 18.4496 2.98361 18.4496C2.81186 18.4496 2.64793 18.4457 2.4918 18.4379C2.33567 18.4301 2.17174 18.4106 2 18.3794C2.90555 18.9727 3.89305 19.4293 4.96253 19.7494C6.03201 20.0695 7.14441 20.2295 8.29976 20.2295C10.1733 20.2295 11.8361 19.8743 13.2881 19.1639C14.7401 18.4535 15.9617 17.5402 16.9532 16.4239C17.9446 15.3076 18.694 14.0586 19.2014 12.6768C19.7088 11.2951 19.9625 9.92506 19.9625 8.56674C19.9625 8.47307 19.9625 8.38329 19.9625 8.29742C19.9625 8.21155 19.9547 8.12178 19.9391 8.0281C20.345 7.74707 20.7197 7.42701 21.0632 7.06791C21.4067 6.70882 21.719 6.32631 22 5.92037Z" fill="white"/>
</svg>
