<svg width="34" height="32" viewBox="0 0 34 32" fill="none" xmlns="http://www.w3.org/2000/svg">
<path fill-rule="evenodd" clip-rule="evenodd" d="M3.46388 23.4653C1.54948 22.4342 0.250977 20.3894 0.250977 18.0421C0.250977 15.695 1.54913 13.6504 3.46312 12.6192C3.65983 11.9565 4.1686 11.4279 4.81914 11.2039C5.39376 5.05196 10.6379 0.25 17.0038 0.25C23.3696 0.25 28.6137 5.05177 29.1885 11.2035C29.8428 11.4275 30.3574 11.9572 30.5498 12.6261C32.4568 13.6595 33.7493 15.7002 33.7493 18.0421C33.7493 20.3842 32.4565 22.4251 30.5491 23.4584C30.3601 24.1122 29.8633 24.6327 29.2292 24.8641C29.1017 27.8779 26.5862 30.2663 23.5227 30.2663H20.8599C20.5983 31.1251 19.7999 31.7499 18.8555 31.7499H15.677C14.5199 31.7499 13.5819 30.8119 13.5819 29.6549C13.5819 28.4978 14.5199 27.5598 15.677 27.5598H18.8555C19.6949 27.5598 20.419 28.0534 20.7533 28.7663H23.5227C25.7789 28.7663 27.6056 27.027 27.7278 24.8558C26.9249 24.5527 26.3475 23.7842 26.3475 22.8717V13.2103C26.3475 12.314 26.9045 11.5567 27.6851 11.2428C27.1348 5.919 22.5709 1.75 17.0038 1.75C11.4363 1.75 6.87201 5.91977 6.32245 11.2443C7.1063 11.5626 7.65904 12.3316 7.65904 13.2297V22.8522C7.65904 24.0353 6.7 24.9943 5.51696 24.9943C4.54695 24.9943 3.72754 24.3496 3.46388 23.4653ZM3.37488 14.4887C2.38378 15.3375 1.75098 16.6124 1.75098 18.0421C1.75098 19.4717 2.38377 20.7466 3.37488 21.5954V14.4887ZM32.2493 18.0421C32.2493 19.4686 31.6192 20.7412 30.6317 21.5899V14.4942C31.6192 15.3429 32.2493 16.6155 32.2493 18.0421ZM28.4896 12.5876C28.125 12.5876 27.8475 12.8763 27.8475 13.2103V22.8717C27.8475 23.2057 28.125 23.4943 28.4896 23.4943C28.8542 23.4943 29.1317 23.2057 29.1317 22.8717V13.2103C29.1317 12.8763 28.8542 12.5876 28.4896 12.5876ZM4.87488 13.2297C4.87488 12.8751 5.16234 12.5876 5.51696 12.5876C5.87157 12.5876 6.15904 12.8751 6.15904 13.2297V22.8522C6.15904 23.2069 5.87157 23.4943 5.51696 23.4943C5.16234 23.4943 4.87488 23.2069 4.87488 22.8522V13.2297ZM15.0819 29.6549C15.0819 29.3262 15.3483 29.0598 15.677 29.0598H18.8555C19.1841 29.0598 19.4505 29.3262 19.4505 29.6549C19.4505 29.9835 19.1841 30.2499 18.8555 30.2499H15.677C15.3483 30.2499 15.0819 29.9835 15.0819 29.6549Z" fill="#9CA3AF"/>
</svg>
