<svg width="40" height="40" viewBox="0 0 40 40" fill="none" xmlns="http://www.w3.org/2000/svg">
<path fill-rule="evenodd" clip-rule="evenodd" d="M21.655 19.4481C21.655 20.6669 20.6669 21.655 19.4481 21.655C18.2293 21.655 17.2412 20.6669 17.2412 19.4481C17.2412 18.2293 18.2293 17.2412 19.4481 17.2412C20.6669 17.2412 21.655 18.2293 21.655 19.4481ZM20.155 19.4481C20.155 19.8385 19.8385 20.155 19.4481 20.155C19.0577 20.155 18.7412 19.8385 18.7412 19.4481C18.7412 19.0577 19.0577 18.7412 19.4481 18.7412C19.8385 18.7412 20.155 19.0577 20.155 19.4481Z" fill="#9CA3AF"/>
<path fill-rule="evenodd" clip-rule="evenodd" d="M19.4481 13.9311C20.6669 13.9311 21.655 12.9431 21.655 11.7242C21.655 10.5054 20.6669 9.51733 19.4481 9.51733C18.2293 9.51733 17.2412 10.5054 17.2412 11.7242C17.2412 12.9431 18.2293 13.9311 19.4481 13.9311ZM19.4481 12.4311C19.8385 12.4311 20.155 12.1146 20.155 11.7242C20.155 11.3338 19.8385 11.0173 19.4481 11.0173C19.0577 11.0173 18.7412 11.3338 18.7412 11.7242C18.7412 12.1146 19.0577 12.4311 19.4481 12.4311Z" fill="#9CA3AF"/>
<path fill-rule="evenodd" clip-rule="evenodd" d="M23.8619 27.1724C23.8619 29.0007 22.3798 30.4828 20.5516 30.4828C18.7233 30.4828 17.2412 29.0007 17.2412 27.1724C17.2412 25.3442 18.7233 23.8621 20.5516 23.8621C22.3798 23.8621 23.8619 25.3442 23.8619 27.1724ZM22.3619 27.1724C22.3619 28.1722 21.5514 28.9828 20.5516 28.9828C19.5517 28.9828 18.7412 28.1722 18.7412 27.1724C18.7412 26.1726 19.5517 25.3621 20.5516 25.3621C21.5514 25.3621 22.3619 26.1726 22.3619 27.1724Z" fill="#9CA3AF"/>
<path fill-rule="evenodd" clip-rule="evenodd" d="M14.8846 17.0462C15.3865 16.177 15.0886 15.0655 14.2194 14.5636C13.3502 14.0618 12.2387 14.3596 11.7368 15.2288C11.235 16.0981 11.5328 17.2096 12.402 17.7114C13.2713 18.2133 14.3827 17.9155 14.8846 17.0462ZM13.5856 16.2962C13.6732 16.1444 13.6212 15.9503 13.4694 15.8627C13.3176 15.775 13.1235 15.827 13.0359 15.9788C12.9482 16.1306 13.0002 16.3247 13.152 16.4124C13.3038 16.5 13.4979 16.448 13.5856 16.2962Z" fill="#9CA3AF"/>
<path fill-rule="evenodd" clip-rule="evenodd" d="M28.5146 21.3263C29.4641 21.8745 29.7895 23.0887 29.2413 24.0382C28.693 24.9877 27.4789 25.3131 26.5293 24.7648C25.5798 24.2166 25.2545 23.0025 25.8027 22.0529C26.3509 21.1034 27.5651 20.7781 28.5146 21.3263ZM27.7646 22.6253C27.9967 22.7593 28.0762 23.0561 27.9422 23.2882C27.8082 23.5203 27.5114 23.5998 27.2793 23.4658C27.0472 23.3318 26.9677 23.035 27.1017 22.8029C27.2357 22.5708 27.5325 22.4913 27.7646 22.6253Z" fill="#9CA3AF"/>
<path fill-rule="evenodd" clip-rule="evenodd" d="M14.6037 23.1156C14.1915 22.4016 13.2786 22.157 12.5647 22.5692C11.8508 22.9814 11.6061 23.8943 12.0183 24.6082C12.4305 25.3221 13.3434 25.5667 14.0573 25.1546C14.7712 24.7424 15.0158 23.8295 14.6037 23.1156ZM13.3146 23.8681C13.3154 23.8674 13.3163 23.8665 13.317 23.8656C13.3182 23.8639 13.3183 23.8632 13.3181 23.8638C13.3179 23.8644 13.3183 23.8638 13.318 23.8617L13.3177 23.8602L13.3172 23.8583L13.316 23.8571L13.3147 23.8559C13.313 23.8546 13.3123 23.8546 13.3129 23.8548C13.3135 23.8549 13.3129 23.8546 13.3108 23.8549C13.3097 23.855 13.3085 23.8553 13.3074 23.8556C13.3066 23.8564 13.3057 23.8573 13.305 23.8582C13.3037 23.8599 13.3037 23.8606 13.3039 23.86C13.3039 23.8596 13.304 23.8597 13.3039 23.86C13.3039 23.8603 13.3039 23.8611 13.304 23.8621C13.3041 23.8632 13.3044 23.8644 13.3048 23.8655L13.3059 23.8666L13.3073 23.8678L13.3091 23.869L13.3112 23.8689C13.3123 23.8687 13.3135 23.8685 13.3146 23.8681Z" fill="#9CA3AF"/>
<path fill-rule="evenodd" clip-rule="evenodd" d="M25.3096 13.7489C26.629 12.9871 28.3162 13.4392 29.078 14.7586C29.8397 16.078 29.3877 17.7652 28.0682 18.5269C26.7488 19.2887 25.0617 18.8366 24.2999 17.5172C23.5381 16.1978 23.9902 14.5106 25.3096 13.7489ZM26.0596 15.0479C26.6616 14.7003 27.4314 14.9066 27.7789 15.5086C28.1265 16.1106 27.9202 16.8803 27.3182 17.2279C26.7162 17.5755 25.9465 17.3692 25.5989 16.7672C25.2514 16.1652 25.4576 15.3955 26.0596 15.0479Z" fill="#9CA3AF"/>
<path fill-rule="evenodd" clip-rule="evenodd" d="M21.6553 4.75C22.0695 4.75 22.4053 4.41421 22.4053 4C22.4053 3.58579 22.0695 3.25 21.6553 3.25H18.3449C17.9307 3.25 17.5949 3.58579 17.5949 4C17.5949 4.41421 17.9307 4.75 18.3449 4.75H19.25V6.2069L19.2503 6.22682C17.2831 6.33222 15.4254 6.84978 13.762 7.69471L13.7536 7.67964L13.025 6.4177L13.809 5.96505C14.1677 5.75795 14.2906 5.29925 14.0835 4.94053C13.8764 4.58182 13.4177 4.45891 13.059 4.66602L10.1921 6.32119C9.83342 6.52829 9.71051 6.98699 9.91762 7.34571C10.1247 7.70443 10.5834 7.82733 10.9421 7.62023L11.7259 7.1677L12.4545 8.42964L12.464 8.44565C10.8629 9.49209 9.49259 10.8624 8.4461 12.4635L8.42989 12.4538L7.16823 11.7254L7.62082 10.9415C7.82792 10.5828 7.70502 10.1241 7.3463 9.91699C6.98758 9.70989 6.52888 9.83279 6.32178 10.1915L5.49909 11.6164L5.49414 11.6249L5.4893 11.6334L4.66661 13.0584C4.4595 13.4171 4.58241 13.8758 4.94112 14.0829C5.29984 14.29 5.75854 14.1671 5.96564 13.8084L6.41823 13.0244L7.67989 13.7529L7.69514 13.7614C6.85006 15.425 6.33242 17.2829 6.22706 19.2503L6.2069 19.25H4.75L4.75 18.345C4.75 17.9308 4.41421 17.595 4 17.595C3.58579 17.595 3.25 17.9308 3.25 18.345V21.6553C3.25 22.0695 3.58579 22.4053 4 22.4053C4.41421 22.4053 4.75 22.0695 4.75 21.6553L4.75 20.75H6.2069L6.22707 20.7497C6.33246 22.717 6.8501 24.5749 7.69514 26.2384L7.67989 26.2469L6.41812 26.9754L5.96554 26.1915C5.75844 25.8328 5.29974 25.7099 4.94102 25.917C4.5823 26.1241 4.4594 26.5828 4.6665 26.9415L6.32168 29.8084C6.52878 30.1671 6.98748 30.29 7.3462 30.0829C7.70492 29.8758 7.82782 29.4171 7.62072 29.0584L7.16812 28.2744L8.42989 27.546L8.44611 27.5363C9.49246 29.1372 10.8625 30.5073 12.4634 31.5537L12.4538 31.5699L11.7254 32.8315L10.9415 32.3789C10.5828 32.1718 10.1241 32.2947 9.91699 32.6535C9.70989 33.0122 9.83279 33.4709 10.1915 33.678L11.6164 34.5006L11.6249 34.5056L11.6335 34.5105L13.0584 35.3331C13.4171 35.5403 13.8758 35.4174 14.0829 35.0586C14.29 34.6999 14.1671 34.2412 13.8084 34.0341L13.0244 33.5815L13.7529 32.3199L13.7614 32.3047C15.4249 33.1499 17.2828 33.6676 19.2503 33.773L19.25 33.7931V35.25H18.3447C17.9305 35.25 17.5947 35.5858 17.5947 36C17.5947 36.4142 17.9305 36.75 18.3447 36.75H21.6551C22.0693 36.75 22.4051 36.4142 22.4051 36C22.4051 35.5858 22.0693 35.25 21.6551 35.25H20.75V33.7931L20.7497 33.773C22.7169 33.6676 24.5745 33.1501 26.2379 32.3052L26.2464 32.3204L26.975 33.5823L26.191 34.0349C25.8323 34.2421 25.7094 34.7007 25.9165 35.0595C26.1236 35.4182 26.5823 35.5411 26.941 35.334L29.8079 33.6788C30.1666 33.4717 30.2895 33.013 30.0824 32.6543C29.8753 32.2956 29.4166 32.1727 29.0579 32.3798L28.2741 32.8323L27.5455 31.5704L27.536 31.5543C29.1371 30.5079 30.5075 29.1377 31.554 27.5366L31.5701 27.5462L32.8318 28.2746L32.3792 29.0585C32.1721 29.4172 32.295 29.8759 32.6537 30.083C33.0124 30.2901 33.4711 30.1672 33.6782 29.8085L34.5009 28.3835L34.5059 28.3751L34.5107 28.3666L35.3334 26.9416C35.5405 26.5829 35.4176 26.1242 35.0589 25.9171C34.7002 25.71 34.2415 25.8329 34.0344 26.1916L33.5818 26.9756L32.3201 26.2471L32.305 26.2386C33.1501 24.5751 33.6678 22.7172 33.7732 20.7497L33.7931 20.75H35.25V21.655C35.25 22.0692 35.5858 22.405 36 22.405C36.4142 22.405 36.75 22.0692 36.75 21.655V18.3447C36.75 17.9305 36.4142 17.5947 36 17.5947C35.5858 17.5947 35.25 17.9305 35.25 18.3447V19.25H33.7931L33.7732 19.2503C33.6678 17.2829 33.1502 15.425 32.3052 13.7615L32.3201 13.7531L33.5819 13.0246L34.0345 13.8085C34.2416 14.1672 34.7003 14.2901 35.059 14.083C35.4177 13.8759 35.5406 13.4172 35.3335 13.0585L33.6783 10.1916C33.4712 9.83293 33.0125 9.71002 32.6538 9.91713C32.2951 10.1242 32.1722 10.5829 32.3793 10.9416L32.8319 11.7256L31.5701 12.454L31.5542 12.4635C30.5078 10.8625 29.1377 9.4924 27.5368 8.44599L27.5462 8.43013L28.2746 7.16848L29.0585 7.62106C29.4172 7.82817 29.8759 7.70526 30.083 7.34654C30.2901 6.98782 30.1672 6.52913 29.8085 6.32202L28.3836 5.49933L28.3751 5.49438L28.3666 5.48954L26.9416 4.66685C26.5829 4.45974 26.1242 4.58265 25.9171 4.94137C25.71 5.30009 25.8329 5.75878 26.1916 5.96589L26.9756 6.41848L26.2471 7.68013L26.2388 7.69499C24.5752 6.84986 22.7172 6.33218 20.7497 6.22681L20.75 6.2069V4.75H21.6553ZM20.0001 32.293C26.7894 32.293 32.2932 26.7892 32.2932 19.9999C32.2932 13.2106 26.7894 7.70679 20.0001 7.70679C13.2108 7.70679 7.70703 13.2106 7.70703 19.9999C7.70703 26.7892 13.2108 32.293 20.0001 32.293Z" fill="#9CA3AF"/>
</svg>
