<svg width="40" height="40" viewBox="0 0 40 40" fill="none" xmlns="http://www.w3.org/2000/svg">
<path fill-rule="evenodd" clip-rule="evenodd" d="M6.46388 27.4653C4.54948 26.4342 3.25098 24.3894 3.25098 22.0421C3.25098 19.695 4.54913 17.6504 6.46312 16.6192C6.65983 15.9565 7.1686 15.4279 7.81914 15.2039C8.39376 9.05196 13.6379 4.25 20.0038 4.25C26.3696 4.25 31.6137 9.05177 32.1885 15.2035C32.8428 15.4275 33.3574 15.9572 33.5498 16.6261C35.4568 17.6595 36.7493 19.7002 36.7493 22.0421C36.7493 24.3842 35.4565 26.4251 33.5491 27.4584C33.3601 28.1122 32.8633 28.6327 32.2292 28.8641C32.1017 31.8779 29.5862 34.2663 26.5227 34.2663H23.8599C23.5983 35.1251 22.7999 35.7499 21.8555 35.7499H18.677C17.5199 35.7499 16.5819 34.8119 16.5819 33.6549C16.5819 32.4978 17.5199 31.5598 18.677 31.5598H21.8555C22.6949 31.5598 23.419 32.0534 23.7533 32.7663H26.5227C28.7789 32.7663 30.6056 31.027 30.7278 28.8558C29.9249 28.5527 29.3475 27.7842 29.3475 26.8717V17.2103C29.3475 16.314 29.9045 15.5567 30.6851 15.2428C30.1348 9.919 25.5709 5.75 20.0038 5.75C14.4363 5.75 9.87201 9.91977 9.32245 15.2443C10.1063 15.5626 10.659 16.3316 10.659 17.2297V26.8522C10.659 28.0353 9.7 28.9943 8.51696 28.9943C7.54695 28.9943 6.72754 28.3496 6.46388 27.4653ZM6.37488 18.4887C5.38378 19.3375 4.75098 20.6124 4.75098 22.0421C4.75098 23.4717 5.38377 24.7466 6.37488 25.5954V18.4887ZM35.2493 22.0421C35.2493 23.4686 34.6192 24.7412 33.6317 25.5899V18.4942C34.6192 19.3429 35.2493 20.6155 35.2493 22.0421ZM31.4896 16.5876C31.125 16.5876 30.8475 16.8763 30.8475 17.2103V26.8717C30.8475 27.2057 31.125 27.4943 31.4896 27.4943C31.8542 27.4943 32.1317 27.2057 32.1317 26.8717V17.2103C32.1317 16.8763 31.8542 16.5876 31.4896 16.5876ZM7.87488 17.2297C7.87488 16.8751 8.16234 16.5876 8.51696 16.5876C8.87157 16.5876 9.15904 16.8751 9.15904 17.2297V26.8522C9.15904 27.2069 8.87157 27.4943 8.51696 27.4943C8.16234 27.4943 7.87488 27.2069 7.87488 26.8522V17.2297ZM18.0819 33.6549C18.0819 33.3262 18.3483 33.0598 18.677 33.0598H21.8555C22.1841 33.0598 22.4505 33.3262 22.4505 33.6549C22.4505 33.9835 22.1841 34.2499 21.8555 34.2499H18.677C18.3483 34.2499 18.0819 33.9835 18.0819 33.6549Z" fill="#9CA3AF"/>
</svg>
