<svg width="25" height="24" viewBox="0 0 25 24" fill="none" xmlns="http://www.w3.org/2000/svg">
<path fill-rule="evenodd" clip-rule="evenodd" d="M12.5004 21.6C17.8023 21.6 22.1004 17.302 22.1004 12C22.1004 6.69809 17.8023 2.40002 12.5004 2.40002C7.19846 2.40002 2.90039 6.69809 2.90039 12C2.90039 17.302 7.19846 21.6 12.5004 21.6ZM11.966 8.60157C11.5978 8.35608 11.1244 8.33319 10.7342 8.54202C10.344 8.75084 10.1004 9.15747 10.1004 9.60003V14.4C10.1004 14.8426 10.344 15.2492 10.7342 15.458C11.1244 15.6669 11.5978 15.644 11.966 15.3985L15.566 12.9985C15.8999 12.7759 16.1004 12.4012 16.1004 12C16.1004 11.5988 15.8999 11.2241 15.566 11.0016L11.966 8.60157Z" fill="white"/>
</svg>
