<svg width="40" height="40" viewBox="0 0 40 40" fill="none" xmlns="http://www.w3.org/2000/svg">
<path d="M26.6797 18.7548C26.9585 18.4484 26.9361 17.9741 26.6298 17.6953C26.3234 17.4165 25.8491 17.4389 25.5703 17.7452L18.1266 25.9251L15.2698 23.1781C14.9713 22.891 14.4965 22.9003 14.2094 23.1989C13.9223 23.4975 13.9316 23.9723 14.2302 24.2594L17.6427 27.5406C17.7886 27.681 17.9851 27.7563 18.1875 27.7496C18.3899 27.7428 18.5809 27.6545 18.7172 27.5048L26.6797 18.7548Z" fill="#9CA3AF"/>
<path fill-rule="evenodd" clip-rule="evenodd" d="M11.3846 5.25C11.7988 5.25 12.1346 5.58579 12.1346 6V7.40381H27.8654V6C27.8654 5.58579 28.2012 5.25 28.6154 5.25C29.0296 5.25 29.3654 5.58579 29.3654 6V7.40381H30.7692C32.9678 7.40381 34.75 9.18606 34.75 11.3846V30.7692C34.75 32.9677 32.9678 34.75 30.7692 34.75H9.23077C7.03225 34.75 5.25 32.9677 5.25 30.7692V11.3846C5.25 9.18606 7.03225 7.40381 9.23077 7.40381H10.6346V6C10.6346 5.58579 10.9704 5.25 11.3846 5.25ZM11.3846 8.90385L11.377 8.90381H9.23077C7.86068 8.90381 6.75 10.0145 6.75 11.3846V12.7885H33.25V11.3846C33.25 10.0145 32.1393 8.90381 30.7692 8.90381H28.623L28.6154 8.90385L28.6078 8.90381H11.3922L11.3846 8.90385ZM6.75 30.7692V14.2885H33.25V30.7692C33.25 32.1393 32.1393 33.25 30.7692 33.25H9.23077C7.86068 33.25 6.75 32.1393 6.75 30.7692Z" fill="#9CA3AF"/>
</svg>
