<svg width="24" height="24" viewBox="0 0 24 24" fill="none" xmlns="http://www.w3.org/2000/svg">
<path fill-rule="evenodd" clip-rule="evenodd" d="M7 9.30889H10.0965V6.44694C10.0965 6.44694 10.1317 6.07942 10.2021 5.34438C10.2725 4.60934 10.6595 3.88995 11.3633 3.18619C12.0827 2.46679 12.9311 2.07973 13.9086 2.02499C14.886 1.97025 16.055 2.00544 17.4156 2.13055V5.32092H15.3982C15.3982 5.32092 15.2418 5.33656 14.929 5.36784C14.6162 5.39912 14.3582 5.52423 14.1549 5.74318C13.9672 5.97777 13.8616 6.22799 13.8382 6.49386C13.8147 6.75972 13.803 6.93175 13.803 7.00994V9.30889H17.2983L16.8526 12.8511H13.7795V22H10.0965V12.8511H7V9.30889Z" fill="white"/>
</svg>
