<svg width="40" height="40" viewBox="0 0 40 40" fill="none" xmlns="http://www.w3.org/2000/svg">
<path d="M9 10.1589C9 10.4351 8.77614 10.6589 8.5 10.6589C8.22386 10.6589 8 10.4351 8 10.1589C8 9.88279 8.22386 9.65894 8.5 9.65894C8.77614 9.65894 9 9.88279 9 10.1589Z" fill="#9CA3AF"/>
<path d="M10.5 10.6589C10.7761 10.6589 11 10.4351 11 10.1589C11 9.88279 10.7761 9.65894 10.5 9.65894C10.2239 9.65894 10 9.88279 10 10.1589C10 10.4351 10.2239 10.6589 10.5 10.6589Z" fill="#9CA3AF"/>
<path d="M13 10.1589C13 10.4351 12.7761 10.6589 12.5 10.6589C12.2239 10.6589 12 10.4351 12 10.1589C12 9.88279 12.2239 9.65894 12.5 9.65894C12.7761 9.65894 13 9.88279 13 10.1589Z" fill="#9CA3AF"/>
<path fill-rule="evenodd" clip-rule="evenodd" d="M8 7.25C6.48122 7.25 5.25 8.48122 5.25 10V28C5.25 29.5169 6.47559 30.75 7.99622 30.75H22.75C23.1642 30.75 23.5 30.4142 23.5 30C23.5 29.5858 23.1642 29.25 22.75 29.25H7.99622C7.30771 29.25 6.75 28.6922 6.75 28V13L31.25 13V22.75C31.25 23.1642 31.5858 23.5 32 23.5C32.4142 23.5 32.75 23.1642 32.75 22.75V10C32.75 8.48122 31.5188 7.25 30 7.25H8ZM31.25 11.5V10C31.25 9.30964 30.6904 8.75 30 8.75H8C7.30964 8.75 6.75 9.30964 6.75 10V11.5L31.25 11.5Z" fill="#9CA3AF"/>
<path fill-rule="evenodd" clip-rule="evenodd" d="M26.0103 19.9504C25.7917 19.7474 25.4736 19.6933 25.2002 19.8125C24.9268 19.9318 24.75 20.2017 24.75 20.5V32.1866C24.75 32.4803 24.9214 32.7469 25.1886 32.8689C25.4557 32.9908 25.7695 32.9456 25.9914 32.7532L27.7199 31.2543L29.3689 34.3524C29.5536 34.6995 29.975 34.845 30.3345 34.6858L32.7244 33.628C32.9064 33.5475 33.0489 33.398 33.1205 33.2124C33.1922 33.0267 33.1872 32.8203 33.1066 32.6384L31.6083 29.2569L34.0357 29.1413C34.3372 29.127 34.6008 28.9332 34.7044 28.6496C34.8081 28.366 34.7316 28.048 34.5103 27.8425L26.0103 19.9504ZM26.25 30.5435V22.2198L32.1822 27.7278L30.4434 27.8106C30.1963 27.8224 29.9708 27.9553 29.8409 28.1658C29.7109 28.3763 29.6931 28.6374 29.7933 28.8636L31.4312 32.56L30.3653 33.0319L28.6018 29.7186C28.4945 29.517 28.3012 29.3753 28.0767 29.3336C27.8522 29.2918 27.6209 29.3547 27.4484 29.5043L26.25 30.5435Z" fill="#9CA3AF"/>
</svg>
