<svg width="14" height="48" viewBox="0 0 14 48" fill="none" xmlns="http://www.w3.org/2000/svg">
<path d="M13.002 6.50134C13.002 10.0912 10.0918 13.0013 6.50195 13.0013C2.9121 13.0013 0.00195313 10.0912 0.00195313 6.50134C0.00195313 2.91149 2.9121 0.00134277 6.50195 0.00134277C10.0918 0.00134277 13.002 2.91149 13.002 6.50134ZM1.04195 6.50134C1.04195 9.51682 3.48648 11.9613 6.50195 11.9613C9.51743 11.9613 11.962 9.51682 11.962 6.50134C11.962 3.48587 9.51743 1.04134 6.50195 1.04134C3.48648 1.04134 1.04195 3.48587 1.04195 6.50134Z" fill="white"/>
<circle cx="6.5026" cy="6.5026" r="2.16667" fill="white"/>
<path fill-rule="evenodd" clip-rule="evenodd" d="M6 48L6 13L7 13L7 48L6 48Z" fill="white"/>
</svg>
